<svg xmlns="http://www.w3.org/2000/svg" version="1.1" viewBox="0 0 256 256">
  <defs>
    <style>
      .favicon {
        fill: #fff;
      }
      @media (prefers-color-scheme:light) {
        .favicon {
          fill: #000;
        }
      }
    </style>
  </defs>

  <g class="favicon">  
    <path d="M230.6,153h-19.1v-17.4c0-45.1-35.9-81.9-80.6-83.4v-17.4c8.3-1.4,14.7-8.5,14.7-17.3S137.7,0,128.1,0s-17.5,7.9-17.5,17.5,6.4,15.9,14.7,17.3v17.4c-44.7,1.5-80.6,38.3-80.6,83.4v17.4h-19.3c-3.3,0-6,2.7-6,6v43.9c0,3.3,2.7,6,6,6h19.3v14.3c0,3.7,3,6.7,6.7,6.7h19.3v22c0,2.2,1.8,4.2,4.2,4.2h106.8c2.2,0,4.2-1.8,4.2-4.2v-22h19.3c3.7,0,6.7-3,6.7-6.7v-14.3h19.1c3.2,0,5.8-2.6,5.8-5.8v-44.4c0-3.2-2.6-5.8-5.8-5.8h-.3ZM44.4,203.2h-19.3c-.2,0-.3-.1-.3-.3v-43.9c0-.2.1-.3.3-.3h19.3v44.6ZM116,17.5c0-6.5,5.3-11.8,11.8-11.8s11.8,5.3,11.8,11.8-5.3,11.8-11.8,11.8-11.8-5.3-11.8-11.8ZM205.8,223.1c0,.6-.5,1.1-1.1,1.1H51.1c-.6,0-1.1-.5-1.1-1.1v-87.5c0-43,34.9-77.9,77.9-77.9s77.9,34.9,77.9,77.9v87.5ZM230.7,203.1s0,.1-.1.1h-19.1v-44.6h19.1s.1,0,.1.1v44.4Z"/>
    <path d="M96.8,127.5c6.5,0,11.8,5.3,11.8,11.8h5.7c0-9.7-7.9-17.5-17.5-17.5s-17.5,7.9-17.5,17.5h5.7c0-6.5,5.3-11.8,11.8-11.8Z"/>
    <path d="M158.8,127.5c6.5,0,11.8,5.3,11.8,11.8h5.7c0-9.7-7.9-17.5-17.5-17.5s-17.5,7.9-17.5,17.5h5.7c0-6.5,5.3-11.8,11.8-11.8h0Z"/>
    <path d="M79.9,161.4c-12.6,0-22.7,10.2-22.7,22.7s10.2,22.7,22.7,22.7h95.9c12.6,0,22.7-10.2,22.7-22.7s-10.2-22.7-22.7-22.7h-95.9ZM193,184.2c0,9.4-7.7,17.1-17.1,17.1h-95.9c-9.4,0-17.1-7.7-17.1-17.1s7.7-17.1,17.1-17.1h95.9c9.4,0,17.1,7.7,17.1,17.1Z"/>
    <path d="M79.8,174.9c-2.2,0-4.1,1.8-4.1,4.1s1.8,4.1,4.1,4.1,4.1-1.8,4.1-4.1-1.8-4.1-4.1-4.1Z"/>
    <path d="M103.8,174.9c-2.2,0-4.1,1.8-4.1,4.1s1.8,4.1,4.1,4.1,4.1-1.8,4.1-4.1-1.8-4.1-4.1-4.1Z"/>
    <path d="M127.9,174.9c-2.2,0-4.1,1.8-4.1,4.1s1.8,4.1,4.1,4.1,4.1-1.8,4.1-4.1-1.8-4.1-4.1-4.1Z"/>
    <path d="M151.9,174.9c-2.2,0-4.1,1.8-4.1,4.1s1.8,4.1,4.1,4.1,4.1-1.8,4.1-4.1-1.8-4.1-4.1-4.1Z"/>
    <path d="M172,179c0,2.2,1.8,4.1,4.1,4.1s4.1-1.8,4.1-4.1-1.8-4.1-4.1-4.1-4.1,1.8-4.1,4.1Z"/>
    <path d="M91.9,187c-2.2,0-4.1,1.8-4.1,4.1s1.8,4.1,4.1,4.1,4.1-1.8,4.1-4.1-1.8-4.1-4.1-4.1Z"/>
    <path d="M115.9,187c-2.2,0-4.1,1.8-4.1,4.1s1.8,4.1,4.1,4.1,4.1-1.8,4.1-4.1-1.8-4.1-4.1-4.1Z"/>
    <path d="M140,187c-2.2,0-4.1,1.8-4.1,4.1s1.8,4.1,4.1,4.1,4.1-1.8,4.1-4.1-1.8-4.1-4.1-4.1Z"/>
    <path d="M164,187c-2.2,0-4.1,1.8-4.1,4.1s1.8,4.1,4.1,4.1,4.1-1.8,4.1-4.1-1.8-4.1-4.1-4.1Z"/>
  </g>
</svg>