<svg xmlns="http://www.w3.org/2000/svg" viewBox="0 0 512 512">
  <defs>
    <g id="left">
      <path d="M425.7,240H124.9l142.4-142.4-22.6-22.6L75,244.7c-6.2,6.2-6.2,16.4,0,22.6l169.7,169.7,22.6-22.6-142.4-142.4h300.8v-32Z"/>
    </g>
    
    <g id="up">
      <path d="M259.3,83c-6.2-6.2-16.4-6.2-22.6,0L67,252.7l22.6,22.6,142.4-142.4v300.8h32V132.9l142.4,142.4,22.6-22.6-169.7-169.7Z"/>
    </g>
    
    <g id="right">
      <path d="M421,244.7L251.3,75l-22.6,22.6,142.4,142.4H70.3v32h300.8l-142.4,142.4,22.6,22.6,169.7-169.7c6.2-6.2,6.2-16.4,0-22.6Z"/>
    </g>

    <g id="down">
      <path d="M406.4,236.7l-142.4,142.4V78.3h-32v300.8L89.6,236.7l-22.6,22.6,169.7,169.7c6.2,6.2,16.4,6.2,22.6,0l169.7-169.7-22.6-22.6Z"/>
    </g>
  </defs>
</svg>