<svg xmlns="http://www.w3.org/2000/svg" viewBox="0 0 512 512">
  <defs>
    <g id="icon-facebook">
      <path d="M256,16.9C123.4,16.9,16,124.3,16,256.9s77.5,207,182,232.9v-159.6h-49.5v-73.3h49.5v-31.6c0-81.7,37-119.6,117.2-119.6s41.4,3,52.2,6v66.5c-5.7-.6-15.5-.9-27.7-.9-39.4,0-54.6,14.9-54.6,53.7v25.9h78.4l-13.5,73.3h-64.9v164.9c118.8-14.4,210.9-115.5,210.9-238.2S388.6,16.9,256,16.9Z"/>
    </g>

    <g id="icon-vimeo">
      <path class="cls-2" d="M437.4,34.7c-71-2.3-119,37.7-144.2,120.1,13-5.6,25.6-8.4,37.9-8.4,26.1,0,37.6,14.7,34.5,43.9-1.6,17.7-13.1,43.5-34.5,77.3-21.5,33.9-37.6,50.8-48.3,50.8s-26.4-26.1-37.9-78.3c-3.9-15.3-10.8-54.4-20.7-117.3-9.2-58.3-33.8-85.5-73.6-81.7-16.9,1.6-42.2,16.9-75.9,46C50,109.5,25.1,131.7,0,153.7l24.1,31c23-16,36.4-24.1,40.2-24.1,17.6,0,34,27.5,49.3,82.6,13.8,50.5,27.5,101,41.3,151.5,20.6,55.1,45.9,82.6,75.7,82.6,48.2,0,107.1-45.3,176.7-135.7,67.3-86.6,102.1-154.9,104.4-204.7h0c3-66.7-21.8-100.8-74.3-102.2Z"/>
    </g>

    <g id="icon-instagram">
      <path d="M255.8,137.2c-65.6.1-118.7,53.4-118.6,119h0c.1,65.6,53.4,118.7,119,118.6,65.6-.1,118.7-53.4,118.6-119-.1-65.6-53.4-118.7-119.1-118.6ZM256.1,333.1c-42.6,0-77.2-34.4-77.3-77,0-42.6,34.4-77.2,77-77.3,42.6,0,77.2,34.4,77.3,77,0,42.6-34.4,77.2-77,77.3ZM379.2,104.5c-15.3,0-27.7,12.5-27.7,27.8,0,15.3,12.5,27.7,27.8,27.7,15.3,0,27.7-12.5,27.7-27.8,0-15.3-12.5-27.7-27.8-27.7ZM487.4,255.6c-.1-62.8-.4-70.7-1.6-95.4-1.2-24.6-5.1-41.4-10.9-56.1-5.9-15.2-13.9-28.1-26.8-40.9-12.9-12.8-25.8-20.7-41-26.6-14.7-5.7-31.5-9.6-56.2-10.6-24.7-1.1-32.6-1.3-95.4-1.2-62.8.1-70.7.4-95.4,1.6-24.6,1.2-41.4,5.1-56.1,10.9-15.2,5.9-28.1,13.9-40.9,26.8-12.8,12.9-20.7,25.8-26.6,41-5.7,14.7-9.6,31.6-10.6,56.2-1.1,24.7-1.3,32.6-1.2,95.4.1,62.8.4,70.7,1.6,95.4,1.2,24.6,5.1,41.4,10.9,56.1,5.9,15.2,13.9,28.1,26.8,40.9,12.9,12.8,25.8,20.7,41,26.6,14.7,5.7,31.5,9.6,56.2,10.6,24.7,1.1,32.6,1.3,95.4,1.2,62.9-.1,70.7-.4,95.4-1.6,24.6-1.2,41.4-5.1,56.1-10.9,15.2-6,28.1-13.9,40.9-26.8,12.8-12.9,20.7-25.8,26.6-41,5.7-14.7,9.6-31.5,10.6-56.2,1.1-24.7,1.3-32.6,1.2-95.4ZM444.5,349.1c-1,22.6-4.7,34.8-7.9,43-4.2,10.8-9.2,18.5-17.3,26.6-8.1,8.1-15.8,13.1-26.6,17.4-8.1,3.2-20.4,7-42.9,8-24.4,1.1-31.7,1.4-93.5,1.5-61.8.1-69.1-.1-93.5-1.2h0c-22.6-1-34.8-4.7-43-7.9-10.8-4.2-18.5-9.2-26.6-17.3-8.1-8.1-13.1-15.8-17.4-26.6-3.2-8.2-7-20.4-8-43-1.1-24.4-1.4-31.7-1.5-93.5-.1-61.8.1-69.1,1.2-93.5,1-22.5,4.7-34.8,7.9-43,4.2-10.8,9.2-18.5,17.3-26.6,8.1-8.1,15.8-13.1,26.6-17.4,8.2-3.2,20.4-7,42.9-8,24.4-1.2,31.7-1.4,93.5-1.5,61.8-.1,69.1,0,93.5,1.2,22.5,1,34.8,4.7,43,7.9,10.8,4.2,18.5,9.2,26.6,17.3,8.1,8.1,13.1,15.8,17.4,26.6,3.2,8.1,7,20.4,8,42.9,1.2,24.4,1.4,31.7,1.5,93.5.1,61.8-.1,69.1-1.2,93.5Z"/>
    </g>

    <g id="icon-x">
      <path d="M310.2,220.6L481.7,24.6h-78.5l-129.4,147.9L162,24.6H0l193.6,253.1L10.1,487.4h78.6l141.6-161.8,123.7,161.8h158l-201.8-266.8ZM375.7,440.4L91.7,69.1h46.7l280.8,371.3h-43.5Z"/>
    </g>
    
    <g id="icon-linkedin">
      <path class="cls-2" d="M382.9,24.6h-253.8c-57.7,0-104.5,46.7-104.5,104.4v254.1c0,57.6,46.8,104.4,104.5,104.4h253.8c57.7,0,104.5-46.7,104.5-104.4v-254.1c0-57.6-46.8-104.4-104.5-104.4ZM175.3,399.1h-63.4v-194.1h63.4v194.1ZM143.6,177.8c-17.5,0-31.7-14.2-31.7-31.7s14.2-31.7,31.7-31.7,31.7,14.2,31.7,31.7-14.2,31.7-31.7,31.7ZM400.1,399.1h-61v-94.1c0-21.5-.5-49.2-31.7-49.2s-36.6,23.4-36.6,47.7v95.7h-60.9v-194.1h58.5v30h.8c8.1-14.6,28.1-30,57.8-30,61.7,0,73.2,38.4,73.2,88.4v105.7Z"/>
    </g>
  </defs>
</svg>