<svg xmlns="http://www.w3.org/2000/svg" viewBox="0 0 358 48">
  <defs>

    <g id="logo-hva-icon">
      <path d="M24.2,26c-.9,0-2,.3-2.2-.2-.3-.5,0-2.5,11.4-5.1,2.5-.6,3.5-.9,3.4-2-.1-.9-2.5-1.8-4.8-1.8h0c-2.4,0-9.6-.2-18.9,4.1-1.2.5-2,1-2.2.7-.4-.6,2.5-3.1,5.7-4.9,1.1-.7,1.8-1.3,1.5-1.8-.4-.7-2.6-.9-9,2.3-3.2,1.8-6.1,4-8.7,6.7l1,1c1-1.1,2.1-2,3.2-3,.7-.6,4.2-3.2,4.5-2.4.1.3-.1.8-1.3,2.4-1.1,1.5-1.8,2.8-1.3,3.2.5.4,1.1.2,2.6-.6,1.1-.6,4.5-2.4,9.8-3.9,5.3-1.6,6.6-1,6.8-.6.2.5-2.3,1.4-3.8,2.1-1.2.6-5.5,3.1-7.8,5,0,0,2.3,3.8,2.3,3.8,2.4-1.4,11.5-3.7,12.5-2,1.1,1.8-8.7,8.6-8.7,8.6l6.2,10.5s14.1-16,11.9-19.5c-2.3-3.5-10.8-2.8-14.1-2.5ZM26.4,0C17.5,0,9.1,2.4,1.9,6.5l5.9,9.9c5.7-3.3,12.1-5,18.6-5h0c6.8,0,13.2,1.8,18.7,5l5.9-9.9C43.7,2.4,35.4,0,26.4,0Z"/>
    </g>

    <g id="logo-hva-small">
      <g>
        <path d="M180.1,19.7c-.7,0-.9-.3-.9-1.5V4.1h-4.8v.6h.7c.7,0,.9.3.9,1.5v12c0,1.2-.2,1.5-.9,1.5h-.7v.6h6.4v-.6h-.7Z"/>
        <path d="M74.9,5.4h.6v-.6h-6.7v.6h.6c1.1,0,1.1.6,1.1,3.4v3.1h-5.5v-3.1c0-2.8,0-3.4,1.1-3.4h.6v-.6h-6.7v.6h.6c1.1,0,1.1.6,1.1,3.4v7.5c0,2.8,0,3.4-1.1,3.4h-.6v.6h6.7v-.6h-.6c-1.1,0-1.1-.6-1.1-3.4v-3.6h5.5v3.6c0,2.8,0,3.4-1.1,3.4h-.6v.6h6.7v-.6h-.6c-1,0-1.1-.6-1.1-3.4v-7.5c0-2.8,0-3.4,1.1-3.4Z"/>
        <path d="M82.4,9c-3.5,0-5.4,2.4-5.4,5.8h0c0,3.4,1.9,5.8,5.4,5.8s5.4-2.4,5.4-5.8-1.9-5.8-5.4-5.8ZM82.4,19.9c-1.6,0-2.1-1.3-2.1-5.1s1-5.1,2.1-5.1,2.1.7,2.1,5.1-.6,5.1-2.1,5.1Z"/>
        <path d="M100.5,8.2c-1.1,0-1.9,1.1-3.1,1.1s-1.4-.3-2.6-.3c-2.4,0-4.8,1.1-4.8,3.8s1,2.8,2.5,3.3h0c-1.1.3-1.7,1.2-1.7,2.4s.4,1.5,1.3,1.9h0c-1.1.2-2.5.9-2.5,2.3,0,2.4,3.1,2.8,4.9,2.8,2.6,0,6.1-1,6.1-4.2s-2.3-3.2-3.9-3.2h-2.6c-1.1,0-1.6-.2-1.6-.7s.3-.9,1-.9c2.8,0,6.2,0,6.2-3.8s-.5-1.9-1.5-2.8c.4-.1.6-.2,1-.2.5,0,.2,1.2,1.5,1.2s1.1-.6,1.1-1.2-.4-1.4-1.2-1.4ZM95.1,20.6c1.3,0,3.4,0,3.4,1.8s-2.1,2.2-3.5,2.2-3.5-.3-3.5-2,2.1-2,3.6-2ZM94.9,15.7c-1.7,0-1.7-1.6-1.7-2.8s0-3.1,1.7-3.1,1.6,2.1,1.6,3.2-.2,2.7-1.6,2.7Z"/>
        <path d="M112.8,14.9s0,0,0,0h0s0,0,0,0ZM107.8,9c-3.5,0-5.4,2.4-5.4,5.8s1.9,5.8,5.4,5.8,4.4-1.4,4.7-4.1h-1c0,1.7-1.2,3.3-3,3.3s-2.7-2.3-2.7-4.5v-.6h6.9c0-3.4-1.3-5.8-4.9-5.8ZM105.9,14.3h0c0-2.2,0-4.5,1.9-4.5s1.6,2.1,1.6,4.5h-3.5Z"/>
        <path d="M119.9,13.4c-2.5-.6-3.1-.8-3.1-1.9s1.1-1.7,2.2-1.7c1.5,0,2.7,1.3,2.9,2.7h.7v-3.5h-.1c-.3.2-.6.4-1.2.4s-1.4-.3-2.4-.3c-2.4,0-4.3,1.1-4.3,3.7s1.6,2.8,3.2,3.2c2.1.5,3.2.8,3.2,2.2s-1.1,1.8-2.2,1.8c-2.1,0-3.1-1.3-3.5-3.2h-.7v3.9h.1c.2-.2.7-.4,1.1-.4.9,0,2.1.4,3.1.4,2.3,0,4.4-1.1,4.4-3.7s-1.5-3.2-3.4-3.6Z"/>
        <path d="M133.8,16.7c-.1,1.8-.9,3.3-2.9,3.3s-2.4-3.2-2.4-4.9c0-2.6.1-5.2,2-5.2s1.2.4,1.2.9-.3.4-.3,1,.6,1.5,1.5,1.5,1.7-.7,1.7-1.8-.9-2.4-3.9-2.4-5.6,1.6-5.6,5.7,1.6,5.9,5.1,5.9,4.2-1.3,4.5-4h-1Z"/>
        <path d="M148.2,19.7c-.7,0-.9-.3-.9-1.5v-6.1c0-1.8-1-3.1-3.2-3.1s-2.8.8-3.4,1.8h0v-6.8h-4.8v.6h.7c.7,0,.9.3.9,1.5v12c0,1.2-.2,1.5-.9,1.5h-.8v.6h6.1v-.6h-.5c-.7,0-.9-.3-.9-1.5v-4.1c0-1.4,0-3.8,2.1-3.8s1.4,1.3,1.4,2.3v5.5c0,1.2-.2,1.5-.9,1.5h-.5v.6h5.8v-.6h-.5Z"/>
        <path d="M155.5,9c-3.5,0-5.4,2.4-5.4,5.8s1.9,5.8,5.4,5.8,5.4-2.4,5.4-5.8-1.9-5.8-5.4-5.8ZM155.5,19.9c-1.6,0-2.1-1.3-2.1-5.1s1-5.1,2.1-5.1,2.1.7,2.1,5.1-.6,5.1-2.1,5.1Z"/>
        <path d="M168,9c-3.5,0-5.4,2.4-5.4,5.8s1.9,5.8,5.4,5.8,5.4-2.4,5.4-5.8-1.9-5.8-5.4-5.8ZM168,19.9c-1.6,0-2.1-1.3-2.1-5.1s1-5.1,2.1-5.1,2.1.7,2.1,5.1-.6,5.1-2.1,5.1Z"/>
        <path d="M67.8,32.6v.6h.5c.4,0,.8.2.8.6s0,.4-.2.7l-2.2,5.5h0l-2.1-5.6c-.1-.4-.2-.6-.2-.7,0-.4.4-.5.7-.5h.7v-.6h-6v.6h.4c.6,0,.7.5,1.1,1.4l2.9,7.3c.2.6.4,1.2.6,1.7h1.5c.3-.8.6-1.7.9-2.5l2.7-6.4c.3-.8.6-1.5,1.4-1.5v-.6h-3.4Z"/>
        <path d="M83.1,40.6c0,1,0,2.2-.7,2.2s-.6-.2-.6-.8v-6.5c0-2.5-2.4-3.1-4.5-3.1s-4.4.5-4.4,2.5.6,1.6,1.6,1.6,1.6-.5,1.6-1.5-.5-1-.5-1.3c0-.6,1-.7,1.5-.7,1.1,0,1.4.8,1.4,1.8v2.3c-.3,0-.6,0-1,0-2.4,0-5.5,1-5.5,3.8s1.5,3,3.4,3,2.5-.4,3.2-1.4c.4,1,1.5,1.4,2.4,1.4,2.7,0,2.7-1.9,2.7-3.4h-.8ZM77,42.9c-1.1,0-1.5-1-1.5-2,0-1.9.8-3.1,2.5-3.1s.4,0,.6,0v2.8h0c0,1.9-1.1,2.3-1.7,2.3Z"/>
        <path d="M97,42.9c-.7,0-.9-.3-.9-1.5v-6.1c0-1.8-1.1-3.1-3.2-3.1s-2.7.7-3.5,1.9h0v-1.9c-.8.2-1.5.4-2.3.4h-2.3v.6h.7c.7,0,.9.3.9,1.5v6.7c0,1.2-.2,1.5-.9,1.5h-.8v.6h6.1v-.6h-.5c-.7,0-.9-.3-.9-1.5v-4.1c0-1.4,0-3.8,2.1-3.8s1.4,1.3,1.4,2.3v5.5c0,1.2-.2,1.5-.9,1.5h-.5v.6h5.8v-.6h-.5Z"/>
        <path d="M119,42.9c-.8,0-1.2-.9-1.5-1.6l-4-10.4c-.4-1-.7-2-1-3.1h-1.9c-.3.9-.6,1.7-.9,2.6l-4.3,10.2c-.7,1.7-1.1,2.3-2.2,2.3v.6h4.7v-.6h-.6c-.7,0-1.2-.3-1.2-.9s.3-1.3.6-2.1l.6-1.4h5.6l.6,1.5c.4,1,.7,1.9.7,2.3,0,.6-.7.6-1.6.6v.6h7v-.6h-.5ZM112.5,37.8h-5l2.6-6.2,2.4,6.2h0Z"/>
        <path d="M138.5,42.9c-.7,0-.9-.3-.9-1.5v-6.1c0-1.8-1.1-3.1-3.2-3.1s-2.7.6-3.6,1.9c-.4-1.4-1.5-1.9-3-1.9s-2.7.7-3.5,1.9h0v-1.9c-.8.2-1.5.4-2.3.4h-2.3v.6h.7c.7,0,.9.3.9,1.5v6.7c0,1.2-.2,1.5-.9,1.5h-.7v.6h6.1v-.6h-.5c-.7,0-.9-.3-.9-1.5v-4.1c0-1.4,0-3.8,2.1-3.8s1.4,1.3,1.4,2.3v5.5c0,1.2-.2,1.5-.9,1.5h-.5v.6h5.8v-.6h-.5c-.7,0-.9-.3-.9-1.5v-4.1c0-1.4,0-3.8,2.1-3.8s1.4,1.3,1.4,2.3v5.5c0,1.2-.2,1.5-.9,1.5h-.5v.6h5.8v-.6h-.5Z"/>
        <path d="M145.6,36.6c-2.5-.6-3.1-.8-3.1-1.9s1.1-1.7,2.2-1.7c1.5,0,2.7,1.3,2.9,2.7h.7v-3.5h-.1c-.3.2-.6.4-1.2.4s-1.4-.3-2.4-.3c-2.4,0-4.3,1.1-4.3,3.7s1.6,2.8,3.2,3.2c2.1.5,3.2.8,3.2,2.2s-1.1,1.8-2.2,1.8c-2.1,0-3.1-1.3-3.5-3.2h-.7v3.9h.1c.2-.2.6-.4,1.1-.4.9,0,2.1.3,3.1.3,2.3,0,4.4-1.1,4.4-3.7s-1.5-3.2-3.4-3.6Z"/>
        <path d="M157,40.3v.7c0,.8-.2,1.6-1,1.6s-1-1-1-2.3v-7h2.3v-.6h-2.3v-4.2h-.7c-.5,2-1.9,4.1-4,4.2v.6h1.5v7.8c0,1.5.9,2.9,3.1,2.9s2.8-1,2.8-3.1v-.5h-.8Z"/>
        <path d="M164.6,32.3c-3.5,0-5.4,2.4-5.4,5.8s1.9,5.8,5.4,5.8,4.4-1.4,4.7-4.1h-1c0,1.7-1.2,3.3-3,3.3s-2.7-2.3-2.7-4.5v-.6h6.9c0-3.4-1.3-5.8-4.9-5.8ZM162.7,37.5c0-2.2,0-4.5,1.9-4.5s1.6,2.1,1.6,4.5h-3.5ZM169.6,38.1s0,0,0,0h0s0,0,0,0Z"/>
        <path d="M178.5,32.5c-1.5,0-2.4,1.2-2.9,2.3h0v-2.5c-.7.2-1.5.4-2.3.4h-2.3v.6h.7c.7,0,.9.3.9,1.5v6.7c0,1.2-.2,1.5-.9,1.5h-.7v.6h6.6v-.6h-1c-.7,0-.9-.3-.9-1.5h0v-3.8c0-2.3.9-3.8,1.5-3.8s.3.1.3.5c0,1.1.9,1.4,1.4,1.4,1.2,0,1.8-.5,1.8-1.6s-1.1-1.8-2.2-1.8Z"/>
        <path d="M193.2,42.9c-.6,0-.9-.2-.9-1.5v-14.1h-4.7v.6h.7c.8,0,.9.4.9,1.5v4.6h0c-.7-1.2-1.7-1.8-3.1-1.8-3.2,0-4.2,3-4.2,5.8s1.1,5.8,4.2,5.8,2.8-.5,3.3-1.9h0v1.6h0s4.6,0,4.6,0v-.6h-.7ZM186.9,42.9c-1.7,0-1.7-4-1.7-5.1s0-4.4,1.6-4.4,2.2,3,2.2,4.5,0,5-2.2,5Z"/>
        <path d="M206,40.6h0c0,1,0,2.2-.7,2.2s-.6-.2-.6-.8v-6.5c0-2.5-2.4-3.1-4.5-3.1s-4.4.5-4.4,2.5.7,1.6,1.6,1.6,1.6-.5,1.6-1.5-.5-1-.5-1.3c0-.6,1-.7,1.5-.7,1.1,0,1.4.8,1.4,1.8v2.3c-.3,0-.6,0-1,0-2.4,0-5.5,1-5.5,3.8s1.6,3,3.4,3,2.5-.4,3.2-1.4c.4,1,1.5,1.4,2.4,1.4,2.7,0,2.7-1.9,2.7-3.4h-.8ZM199.9,42.9c-1.1,0-1.5-1-1.5-2,0-1.9.8-3.1,2.5-3.1s.4,0,.6,0v2.8h0c0,1.9-1.1,2.3-1.7,2.3Z"/>
        <path d="M226.5,42.9c-.7,0-.9-.3-.9-1.5v-6.1c0-1.8-1.1-3.1-3.2-3.1s-2.7.6-3.6,1.9c-.4-1.4-1.5-1.9-3-1.9s-2.7.7-3.5,1.9h0v-1.9c-.7.2-1.5.4-2.3.4h-2.3v.6h.7c.7,0,.9.3.9,1.5v6.7c0,1.2-.2,1.5-.9,1.5h-.7v.6h6.1v-.6h-.5c-.7,0-.9-.3-.9-1.5v-4.1c0-1.4,0-3.8,2.1-3.8s1.4,1.3,1.4,2.3v5.5c0,1.2-.2,1.5-.9,1.5h-.5v.6h5.8v-.6h-.5c-.7,0-.9-.3-.9-1.5v-4.1c0-1.4,0-3.8,2.1-3.8s1.4,1.3,1.4,2.3v5.5c0,1.2-.2,1.5-.9,1.5h-.5v.6h5.8v-.6h-.5Z"/>
      </g>
      <path d="M24.2,26c-.9,0-2,.3-2.2-.2-.3-.5,0-2.5,11.4-5.1,2.5-.6,3.5-.9,3.4-2-.1-.9-2.5-1.8-4.8-1.8h0c-2.4,0-9.6-.2-18.9,4.1-1.2.5-2,1-2.2.7-.4-.6,2.5-3.1,5.7-4.9,1.1-.7,1.8-1.3,1.5-1.8-.4-.7-2.6-.9-9,2.3-3.2,1.8-6.1,4-8.7,6.7l1,1c1-1.1,2.1-2,3.2-3,.7-.6,4.2-3.2,4.5-2.4.1.3-.1.8-1.3,2.4-1.1,1.5-1.8,2.8-1.3,3.2.5.4,1.1.2,2.6-.6,1.1-.6,4.5-2.4,9.8-3.9,5.3-1.6,6.6-1,6.8-.6.2.5-2.3,1.4-3.8,2.1-1.2.6-5.5,3.1-7.8,5,0,0,2.3,3.8,2.3,3.8,2.4-1.4,11.5-3.7,12.5-2,1.1,1.8-8.7,8.6-8.7,8.6l6.2,10.5s14.1-16,11.9-19.5c-2.3-3.5-10.8-2.8-14.1-2.5ZM26.4,0C17.5,0,9.1,2.4,1.9,6.5l5.9,9.9c5.7-3.3,12.1-5,18.6-5h0c6.8,0,13.2,1.8,18.7,5l5.9-9.9C43.7,2.4,35.4,0,26.4,0Z"/>
    </g>

    <g id="logo-hva-wide">
      <g>
        <path d="M75.1,15.1h.6v-.6h-6.8v.6h.6c1.1,0,1.1.6,1.1,3.4v3.1h-5.5v-3.1c0-2.8,0-3.4,1.1-3.4h.6v-.6h-6.8v.6h.6c1.1,0,1.1.6,1.1,3.4v7.5c0,2.8,0,3.4-1.1,3.4h-.6v.6h6.8v-.6h-.6c-1.1,0-1.1-.6-1.1-3.4v-3.6h5.5v3.6c0,2.8,0,3.4-1.1,3.4h-.6v.6h6.8v-.6h-.6c-1.1,0-1.1-.6-1.1-3.4v-7.5c0-2.8,0-3.4,1.1-3.4Z"/>
        <path d="M82.7,18.7c-3.5,0-5.4,2.4-5.4,5.8,0,3.4,1.9,5.8,5.4,5.8s5.5-2.4,5.5-5.8-1.9-5.8-5.5-5.8ZM82.7,29.6c-1.6,0-2.1-1.3-2.1-5.1s1-5.1,2.1-5.1,2.1.7,2.1,5.1-.6,5.1-2.1,5.1Z"/>
        <path d="M101,17.9c-1.1,0-1.9,1.1-3.1,1.1-.5,0-1.5-.3-2.7-.3-2.4,0-4.8,1.1-4.8,3.8s1,2.8,2.5,3.3h0c-1.1.3-1.7,1.2-1.7,2.3s.4,1.5,1.3,1.9h0c-1.1.2-2.6.9-2.6,2.3,0,2.4,3.1,2.8,5,2.8,2.6,0,6.2-1,6.2-4.2s-2.3-3.2-4-3.2h-2.6c-1.1,0-1.6-.2-1.6-.7s.3-.9,1-.9c2.9,0,6.3,0,6.3-3.8s-.5-1.9-1.6-2.8c.4-.1.6-.2,1-.2.5,0,.2,1.2,1.5,1.2s1.1-.6,1.1-1.2-.4-1.4-1.2-1.4ZM95.6,30.3c1.3,0,3.4,0,3.4,1.8s-2.1,2.2-3.6,2.2-3.5-.3-3.5-2,2.1-2,3.6-2ZM95.3,25.4c-1.7,0-1.8-1.6-1.8-2.8s0-3.1,1.8-3.1,1.6,2.1,1.6,3.2-.2,2.7-1.6,2.7Z"/>
        <path d="M113.5,24.6h0c0-3.4-1.3-5.9-5-5.9s-5.5,2.4-5.5,5.8,1.9,5.8,5.5,5.8,4.5-1.4,4.8-4.1h-1c0,1.7-1.2,3.3-3.1,3.3s-2.7-2.3-2.7-4.5v-.5h7ZM108.4,19.5c1.6,0,1.6,2.1,1.6,4.5h-3.5c0-2.1,0-4.5,1.9-4.5Z"/>
        <path d="M120.7,23.1c-2.6-.6-3.1-.7-3.1-1.9s1.1-1.7,2.2-1.7c1.5,0,2.7,1.3,3,2.7h.7v-3.5h-.1c-.3.2-.6.4-1.2.4s-1.4-.4-2.4-.4c-2.4,0-4.4,1.1-4.4,3.7s1.6,2.8,3.2,3.2c2.1.5,3.2.8,3.2,2.2s-1.1,1.8-2.2,1.8c-2.1,0-3.1-1.3-3.6-3.2h-.7v3.9h.1c.2-.1.7-.4,1.1-.4.9,0,2.1.4,3.1.4,2.3,0,4.5-1.1,4.5-3.7s-1.5-3.1-3.5-3.6Z"/>
        <path d="M134.7,26.3c-.2,1.8-.9,3.3-2.9,3.3s-2.4-3.2-2.4-4.9c0-2.6.1-5.2,2-5.2s1.3.4,1.3.9-.3.4-.3,1,.6,1.5,1.5,1.5,1.7-.7,1.7-1.8-.9-2.4-4-2.4-5.6,1.6-5.6,5.7,1.6,5.9,5.2,5.9,4.3-1.3,4.6-4h0s-1,0-1,0Z"/>
        <path d="M149.3,29.3c-.7,0-.9-.3-.9-1.5v-6.1c0-1.8-1.1-3.1-3.2-3.1s-2.8.8-3.4,1.8h0v-6.8h-4.8v.6h.8c.7,0,.9.3.9,1.5v12c0,1.2-.2,1.5-.9,1.5h-.8v.6h6.2v-.6h-.5c-.7,0-.9-.3-.9-1.5v-4.1c0-1.4,0-3.8,2.1-3.8s1.4,1.2,1.4,2.3v5.5c0,1.2-.2,1.5-.9,1.5h-.5v.6h5.9v-.6h-.5Z"/>
        <path d="M156.7,18.7c-3.5,0-5.4,2.4-5.4,5.8s1.9,5.8,5.4,5.8,5.5-2.4,5.5-5.8-1.9-5.8-5.5-5.8ZM156.7,29.6c-1.6,0-2.1-1.3-2.1-5.1s1-5.1,2.1-5.1,2.1.7,2.1,5.1-.6,5.1-2.1,5.1Z"/>
        <path d="M169.4,18.7c-3.5,0-5.5,2.4-5.5,5.8s1.9,5.8,5.5,5.8,5.4-2.4,5.4-5.8-1.9-5.8-5.4-5.8ZM169.4,29.6c-1.6,0-2.1-1.3-2.1-5.1s1-5.1,2.1-5.1,2.1.7,2.1,5.1-.6,5.1-2.1,5.1Z"/>
        <path d="M181.7,29.3c-.7,0-.9-.3-.9-1.5v-14.1h-4.8v.6h.8c.7,0,.9.3.9,1.5v12c0,1.2-.2,1.5-.9,1.5h-.8v.6h6.5v-.6h-.8Z"/>
        <path d="M199.9,19.7v-.6h-3.5v.6h.5c.4,0,.8.2.8.6s0,.4-.2.7l-2.2,5.5h0l-2.2-5.6c-.1-.4-.2-.6-.2-.7,0-.4.4-.5.8-.5h.7v-.6h-6v.6h.4c.6,0,.7.5,1.1,1.4l2.9,7.3c.2.6.4,1.2.6,1.7h1.5c.3-.8.6-1.7.9-2.5l2.7-6.4c.4-.8.6-1.5,1.4-1.5h0s0,0,0,0Z"/>
        <path d="M211.9,27h0c0,1,0,2.1-.7,2.1s-.6-.2-.6-.8v-6.5c0-2.5-2.4-3.1-4.5-3.1s-4.4.5-4.4,2.5.7,1.6,1.7,1.6,1.7-.6,1.7-1.5-.5-1-.5-1.3c0-.6,1-.7,1.5-.7,1.2,0,1.5.8,1.5,1.8v2.3c-.3,0-.6,0-1,0-2.4,0-5.6,1-5.6,3.8s1.6,3,3.5,3,2.6-.4,3.2-1.5c.4,1,1.5,1.5,2.4,1.5,2.7,0,2.7-1.9,2.7-3.4h-.8ZM207.5,27c0,1.9-1.1,2.3-1.7,2.3-1.1,0-1.5-1-1.5-2,0-1.9.8-3.1,2.6-3.1s.4,0,.7,0v2.8Z"/>
        <path d="M226,29.3c-.7,0-.9-.3-.9-1.5v-6.1c0-1.8-1.1-3.1-3.2-3.1s-2.7.7-3.6,1.9h0v-1.9c-.8.2-1.5.4-2.4.4h-2.3v.6h.7c.7,0,.9.3.9,1.5v6.7c0,1.2-.2,1.5-.9,1.5h-.7s0,0,0,0v.6h6.2v-.6h-.5c-.7,0-.9-.3-.9-1.5v-4.1c0-1.4,0-3.8,2.1-3.8s1.4,1.2,1.4,2.3v5.5c0,1.2-.2,1.5-.9,1.5h-.5v.6h5.9v-.6h-.5Z"/>
        <path d="M248.2,29.3c-.9,0-1.2-.9-1.5-1.6l-4.1-10.4c-.4-1-.7-2-1-3.1h-2c-.3.9-.6,1.8-.9,2.6l-4.3,10.2c-.7,1.7-1.1,2.3-2.3,2.3v.6h4.8v-.6h-.6c-.8,0-1.2-.3-1.2-.9s.3-1.3.6-2.1l.6-1.4h5.7l.6,1.5c.4,1,.7,1.9.7,2.3,0,.6-.7.6-1.7.7v.6h7.1v-.6h-.5ZM236.6,24.2l2.6-6.2,2.4,6.2h-5.1Z"/>
        <path d="M268,29.3c-.7,0-.9-.3-.9-1.5v-6.1c0-1.8-1.1-3.1-3.2-3.1s-2.7.6-3.7,1.9c-.4-1.4-1.5-1.9-3-1.9s-2.7.7-3.6,1.9h0v-1.9c-.8.2-1.6.4-2.4.4h-2.3v.6h.7c.7,0,.9.3.9,1.5v6.7c0,1.2-.2,1.5-.9,1.5h-.7s0,0,0,0v.6h6.2v-.6h-.5c-.7,0-.9-.3-.9-1.5v-4.1c0-1.4,0-3.8,2.1-3.8s1.4,1.2,1.4,2.3v5.5c0,1.2-.2,1.5-.9,1.5h-.5v.6h5.9v-.6h-.5c-.7,0-.9-.3-.9-1.5v-4.1c0-1.4,0-3.8,2.1-3.8s1.4,1.2,1.4,2.3v5.5c0,1.2-.2,1.5-.9,1.5h-.5v.6h5.9v-.6h-.5Z"/>
        <path d="M275.2,23.1c-2.6-.6-3.1-.7-3.1-1.9s1.1-1.7,2.2-1.7c1.5,0,2.7,1.3,3,2.7h.7v-3.5h-.1c-.3.2-.6.4-1.2.4s-1.4-.4-2.4-.4c-2.4,0-4.4,1.1-4.4,3.7s1.6,2.8,3.2,3.2c2.1.5,3.2.8,3.2,2.2s-1.1,1.8-2.2,1.8c-2.1,0-3.1-1.3-3.6-3.2h-.7v3.9h.1c.2-.1.7-.4,1.1-.4,1,0,2.1.4,3.1.4,2.3,0,4.5-1.1,4.5-3.7s-1.5-3.1-3.5-3.6Z"/>
        <path d="M286.8,26.7v.7c0,.8-.2,1.6-1,1.6s-1-1-1-2.3v-7h2.3s0,0,0,0v-.6h-2.3v-4.2h-.7c-.5,2-1.9,4.1-4.1,4.2v.6h1.5v7.8c0,1.5.9,2.9,3.1,2.9s2.9-1,2.9-3.1v-.5h-.8Z"/>
        <path d="M299.5,24.6h0c0-3.4-1.3-5.9-5-5.9s-5.5,2.4-5.5,5.8,1.9,5.8,5.5,5.8,4.5-1.4,4.8-4.1h-1c0,1.7-1.2,3.3-3.1,3.3s-2.7-2.3-2.7-4.5v-.5h7ZM292.5,23.9c0-2.1,0-4.5,1.9-4.5s1.6,2.1,1.6,4.5h-3.5Z"/>
        <path d="M308.6,18.9c-1.5,0-2.5,1.2-3,2.3h0v-2.5c-.8.2-1.6.4-2.4.4h-2.3v.6h.7c.7,0,.9.3.9,1.5v6.7c0,1.2-.2,1.5-.9,1.5h-.7v.6h6.7v-.6h-1c-.7,0-.9-.3-.9-1.5v-3.8c0-2.3.9-3.7,1.5-3.7s.3.1.3.5c0,1.1.9,1.4,1.5,1.4,1.2,0,1.9-.5,1.9-1.6s-1.2-1.8-2.2-1.8Z"/>
        <path d="M319.5,30h0s0,0,0,0h0ZM323.4,29.3c-.6,0-.9-.2-.9-1.5v-14.1h-4.7v.6h.7c.8,0,.9.4.9,1.5v4.6h0c-.7-1.2-1.7-1.8-3.1-1.8-3.2,0-4.3,3-4.3,5.8s1.1,5.8,4.2,5.8,2.8-.5,3.3-1.9h0v1.6h4.6v-.6h-.7ZM317.1,29.3c-1.7,0-1.7-4-1.7-5.1s0-4.4,1.7-4.4,2.3,3,2.3,4.5,0,5-2.2,5Z"/>
        <path d="M336.4,27h0c0,1,0,2.1-.7,2.1s-.6-.2-.6-.8v-6.5c0-2.5-2.4-3.1-4.5-3.1s-4.4.5-4.4,2.5.7,1.6,1.7,1.6,1.7-.6,1.7-1.5-.5-1-.5-1.3c0-.6,1-.7,1.5-.7,1.2,0,1.5.8,1.5,1.8v2.3c-.3,0-.6,0-1,0-2.4,0-5.6,1-5.6,3.8s1.6,3,3.5,3,2.6-.4,3.2-1.5c.4,1,1.5,1.5,2.4,1.5,2.7,0,2.7-1.9,2.7-3.4h-.8ZM331.9,27c0,1.9-1.1,2.3-1.7,2.3-1.1,0-1.5-1-1.5-2,0-1.9.8-3.1,2.6-3.1s.4,0,.7,0v2.8Z"/>
        <path d="M357.1,29.3c-.7,0-.9-.3-.9-1.5v-6.1c0-1.8-1.1-3.1-3.2-3.1s-2.7.6-3.7,1.9c-.4-1.4-1.5-1.9-3-1.9s-2.7.7-3.6,1.9h0v-1.9c-.8.2-1.6.4-2.4.4h-2.3v.6h.7c.7,0,.9.3.9,1.5v6.7c0,1.2-.2,1.5-.9,1.5h-.7,0s0,0,0,0v.6h6.2v-.6h-.5c-.7,0-.9-.3-.9-1.5v-4.1c0-1.4,0-3.8,2.1-3.8s1.4,1.2,1.4,2.3v5.5c0,1.2-.2,1.5-.9,1.5h-.5v.6h5.9v-.6h-.5c-.7,0-.9-.3-.9-1.5v-4.1c0-1.4,0-3.8,2.1-3.8s1.4,1.2,1.4,2.3v5.5c0,1.2-.2,1.5-.9,1.5h-.5v.6h5.9v-.6h-.5Z"/>
      </g>
      <path d="M26.4,0C17.5,0,9.1,2.4,1.9,6.5l5.9,9.9c5.7-3.3,12.1-5,18.6-5h0c6.8,0,13.2,1.8,18.7,5l5.9-9.9C43.7,2.4,35.4,0,26.4,0ZM24.2,26c-.9,0-2,.3-2.2-.2-.3-.5,0-2.5,11.4-5.1,2.5-.6,3.5-.9,3.4-2-.1-.9-2.5-1.8-4.8-1.8h0c-2.4,0-9.6-.2-18.9,4.1-1.2.5-2,1-2.2.7-.4-.6,2.5-3.1,5.7-4.9,1.1-.7,1.8-1.3,1.5-1.8-.4-.7-2.6-.9-9,2.3-3.2,1.8-6.1,4-8.7,6.7l1,1c1-1.1,2.1-2,3.2-3,.7-.6,4.2-3.2,4.5-2.4.1.3-.1.8-1.3,2.4-1.1,1.5-1.8,2.8-1.3,3.2.5.4,1.1.2,2.6-.6,1.1-.6,4.5-2.4,9.8-3.9,5.3-1.6,6.6-1,6.8-.6.2.5-2.3,1.4-3.8,2.1-1.2.6-5.5,3.1-7.8,5,0,0,2.3,3.8,2.3,3.8,2.4-1.4,11.5-3.7,12.5-2,1.1,1.8-8.7,8.6-8.7,8.6l6.2,10.5s14.1-16,11.9-19.5c-2.3-3.5-10.8-2.8-14.1-2.5Z"/>
    </g>
  </defs>
</svg>