<svg class="logo-creating-tomorrow" xmlns="http://www.w3.org/2000/svg" viewBox="0 0 185 40">
  <g id="logo-creating-tomorrow">
     <path d="M12.2 4.9h.9V.2h-.9c0 .5-.5.5-.9.5-.5 0-.9-.2-1.2-.3C9.6.2 9.1 0 8 0 2.4 0 0 4.8 0 9.5c0 4.9 2.8 8.9 8.5 8.9.8 0 1.6-.2 2.3-.4.5-.1.9-.3 1.2-.3.3 0 .5.2.5.5h.7v-4.8h-.9c-.2 2.4-1.9 4.3-4.4 4.3-3.3 0-5.4-3.1-5.4-8.7 0-3.2 1-8.3 5.4-8.3 2.7 0 4 1.9 4.3 4.2zM16.2 17.4h-.7v.6h7v-.7H22c-1.4 0-2.1 0-2.1-1.5v-4.3c0-2 1-4.8 2.8-4.8h.5c-.2.3-.2.4-.2.6 0 .7.7 1.2 1.4 1.2.9 0 1.4-.5 1.4-1.4 0-1.2-1.4-1.7-2.4-1.7-2.1 0-3 1.5-3.8 3.1V5.4c-.9.2-2.8.3-3.5.3h-.5v.7h.7c1.2 0 1.4.7 1.4 1.9v7.5c-.1 1.2-.3 1.6-1.5 1.6zM33.1 17.7c-3 0-3.1-3.6-3.1-5.8h8c0-3.1-1.6-6.6-5.2-6.6-4 0-5.4 3.4-5.4 6.8 0 3.6 1.6 6.3 5.4 6.3 3 0 4.9-1.7 5.1-4.6h-1c-.1 2.2-1.5 3.9-3.8 3.9zm-.3-11.6c2.6 0 2.8 3.2 2.8 5.1h-5.8c0-1.8.4-5.1 3-5.1zM52.3 16.2v-1.4h-.7v.9c0 .9-.3 1.7-1 1.7-.9 0-.9-1-.9-1.7V8.5c0-2.2-1.6-3.2-4.2-3.2-1.6 0-4.4.5-4.4 2.4 0 1 .5 1.7 1.6 1.7.7 0 1.4-.5 1.4-1.2 0-.3 0-.7-.3-1 .3-.9 1.2-1 2.1-1 1.2 0 2.1 1 2.1 2.2V11c-3.5 0-7.3.7-7.3 4.4 0 2.2 1.9 3.2 4.2 3.2 1.4 0 2.6-.5 3.3-1.7.2 1.2 1.2 1.7 2.3 1.7 1.2 0 2.3-1 2.3-2.4h-.5zm-4.2-1.7c0 1.5-.9 3.1-2.6 3.1-1.6 0-2.4-1-2.3-2.6 0-2.9 1.9-3.6 4.9-3.6v3.1zM58.4 1.9v3.9h3.1v.9h-3.1v9.5c0 .9.3 1.4 1 1.4 1 0 1.2-.7 1.2-1.5v-1.2h1v.9c0 1.9-1 2.9-2.6 2.9-2.4 0-2.8-1.4-2.8-3.1v-9h-2.3v-.8c2.3 0 3.1-1.7 3.5-3.9h1zM63.3 6.5c1 0 1.4 0 1.4 1.2v8.2c0 .9-.2 1.4-1.2 1.4h-.9v.7h6.3v-.7H68c-1 0-1.4-.3-1.4-1.5v-8c0-.3 0-.7.1-1.1 0-.4.1-.9.1-1.3-.2 0-.4.1-.7.1-.9.1-1.7.2-2.7.2h-.9v.7h.8zM67 1.7C67 1 66.3.3 65.6.3s-1.4.7-1.4 1.4c0 .9.7 1.4 1.4 1.4S67 2.6 67 1.7zM70.1 5.8h.7c1.2 0 2.3-.2 3.3-.3v2.4c1-1.5 2.4-2.4 3.8-2.4 3.7 0 4.2 1.7 4.2 3.7v6.3c0 1.9.2 1.9 1.2 1.9h.9v.6H78v-.7h.9c1 0 1.2 0 1.2-1.9V9.9c0-2-.5-3.4-2.4-3.4-2.3 0-3.5 1.9-3.5 3.9v5.1c0 1.9.2 1.9 1.2 1.9h.9v.6H70v-.7h.9c1 0 1.2 0 1.2-1.9V8c0-1.2-.3-1.4-1.4-1.4h-.5v-.8zM96 6.6c.2.3.4.7 1 .7.7 0 1.2-.7 1.2-1.4 0-.9-.5-1.4-1.4-1.4-.6 0-1.1.3-1.6.6-.4.3-.9.6-1.4.6-.2 0-.3 0-.5-.1s-.3 0-.5 0c-.3-.2-.7-.2-1.4-.2-2.6 0-5.1 1.5-5.1 4.4 0 1.5 1.2 3.1 2.8 3.6-1 .3-1.9 1-1.9 2.2 0 1 .7 1.9 1.6 2.2-1.2.2-2.8 1.3-2.8 2.8 0 2.7 3.3 3.4 5.6 3.4 2.6 0 6.1-1.2 6.1-4.1 0-2.7-1.9-3.6-4.2-3.6h-2.8c-1.2 0-2.3-.2-2.3-1 0-.9.9-1 2.3-1 3 0 5.6-1 5.6-4.3 0-1.7-.7-2.7-1.9-3.6.3-.2 1-.3 1.2-.3.2 0 .3.2.4.5zM92.1 18c2.1 0 3.5.3 3.5 2.4 0 1.9-1.9 2.7-3.7 2.7-1.6 0-3.8-.5-4-2.6 0-2.5 2.1-2.5 4.2-2.5zm-.4-4.6c-2.3 0-2.8-1.7-2.8-3.6 0-2 .5-3.7 2.8-3.7 2.1 0 2.4 2 2.4 3.7s-.4 3.6-2.4 3.6zM107.3.3H122v4.3h-1c-.2-2.2-1.2-3.4-4.2-3.4h-1.2v13.4c0 2.4 0 2.7 1.2 2.7h1.2v.7h-7v-.7h1.2c1.2 0 1.2-.3 1.2-2.7V1.2h-1.2c-3 0-4 1.4-4.2 3.4h-.9V.3zM127.5 5.4c-3.7 0-5.6 3.1-5.6 6.5s1.9 6.5 5.6 6.5c3.7 0 5.6-3.1 5.6-6.5 0-3.2-1.9-6.5-5.6-6.5zm0 12.3c-3.1 0-3.1-3.6-3.1-5.8s0-5.8 3.1-5.8 3.1 3.6 3.1 5.8 0 5.8-3.1 5.8zM135.3 17.4h.9c1 0 1.2 0 1.2-1.9V7.8c0-1.2-.3-1.4-1.4-1.4h-.5v-.6h.5c1.2 0 2.3-.2 3.3-.3v2.4c1-1.5 2.4-2.4 3.8-2.4 1.6 0 3 .3 3.7 2.2.5-1 2.1-2.2 4-2.2 3.7 0 4.2 1.7 4.2 3.7v6.3c0 1.9.2 1.9 1.2 1.9h.7v.6h-6.3v-.7h1c1 0 1.2 0 1.2-1.9V9.9c0-2-.5-3.4-2.4-3.4-2.1 0-3.3 1.2-3.3 3.4v5.6c0 1.9.2 1.9 1.2 1.9h.9v.6H143v-.7h.9c1 0 1.2 0 1.2-1.9V9.9c0-2-.5-3.4-2.3-3.4-2.3 0-3.5 1.9-3.5 3.9v5.1c0 1.9.2 1.9 1.2 1.9h.9v.6h-6.3v-.7h.2zM164.6 5.4c-3.7 0-5.6 3.1-5.6 6.5s1.9 6.5 5.6 6.5c3.7 0 5.6-3.1 5.6-6.5 0-3.2-1.9-6.5-5.6-6.5zm0 12.3c-3.1 0-3.1-3.6-3.1-5.8s0-5.8 3.1-5.8 3.1 3.6 3.1 5.8.1 5.8-3.1 5.8zM172.7 17.4h.3c1.2 0 1.4-.3 1.4-1.5V8.3c0-1.2-.2-1.9-1.4-1.9h-.5v-.6h.5c.7 0 2.6-.2 3.5-.3v3.1c.9-1.5 1.7-3.1 3.8-3.1 1 0 2.4.5 2.4 1.7 0 .9-.5 1.4-1.4 1.4-.7 0-1.4-.5-1.4-1.2 0-.2 0-.3.2-.5h-.5c-1.7 0-2.8 2.7-2.8 4.8V16c0 1.5.7 1.5 2.1 1.5h.5v.5h-6.8v-.6zM184.4 17.4h-.4v.6h6.8v-.7h-.5c-1.4 0-2.1 0-2.1-1.5v-4.3c0-2 1-4.8 2.8-4.8h.5c-.2.2-.2.3-.2.5 0 .7.7 1.2 1.4 1.2.9 0 1.4-.5 1.4-1.4 0-1.2-1.4-1.7-2.4-1.7-2.1 0-3 1.5-3.8 3.1v-3c-.9.2-2.8.3-3.5.3h-.5v.7h.5c1.2 0 1.4.7 1.4 1.9v7.5c-.1 1.2-.2 1.6-1.4 1.6zM201.3 5.4c-3.7 0-5.6 3.1-5.6 6.5s2.1 6.5 5.6 6.5c3.7 0 5.6-3.1 5.6-6.5 0-3.2-2-6.5-5.6-6.5zm.1 12.3c-3.1 0-3.1-3.6-3.1-5.8s0-5.8 3.1-5.8 3.1 3.6 3.1 5.8.1 5.8-3.1 5.8zM210.4 7.8c0 .1.1.2.1.2l3.8 10.2h1l3.7-9.5 3.7 9.5h.9l3.8-10v-.1c.2-.6.5-1.6 1-1.6h.5v-.7h-4v.9h.3c.7 0 1.2 0 1.2.5 0 .3 0 .7-.2 1l-2.6 7.1-2.6-7.1V7c0-.5.5-.5 1.2-.5h.3v-.7h-5.8v.7h.3c.5 0 .9 0 1 .5l.2.5-3 7.8-2.4-7c-.2-.5-.3-1.2-.3-1.4 0-.5.5-.5 1-.5h.9v-.6h-5.8v.7h.3c1 0 1.2.5 1.5 1.3z"></path>
  </g>
</svg>