<svg xmlns="http://www.w3.org/2000/svg" viewBox="0 0 512 512" id="uni1">
  <defs>
    <style>
      .cls-1 { fill: #fce3a0; }
      .cls-2 { fill: #ffdbe0; }
      .cls-3 { fill: #ff8e9e; }
      .cls-4 { fill: #ffb5c0; }
      .cls-5 { fill: #fff; }
      .cls-7 { fill: #ffce71; }
    </style>
  </defs>

  <g class="fill">
    <path class="cls-1" d="M112,145.7l-28.5-19.3h-10.7l-22.3-22.3-4-2.7c-6.3-4.2-14.6-3.4-20,1.9-5.3,5.3-6.1,13.7-1.9,20l25.9,38.4h12.5l20.5,38.8c11.9,4.6,26.3,1.6,35.3-9.4.4-.5.8-1,1.1-1.5v-36.4c-2.2-3-4.8-5.6-7.9-7.6h0Z"/>
    <path class="cls-7" d="M50.5,104.1v57.6l18.3,27.2c3.8,5.6,9,9.5,14.7,11.7v-74.2s-33-22.3-33-22.3Z"/>
    <path class="cls-7" d="M436.6,304.5l34.7-61.8,26.2,14.7-34.7,61.8-26.2-14.7Z"/>
    <path class="cls-1" d="M496.8,255.3l-23.4-13.2c-10-5.6-22.3,1.6-22.3,13.1,0,5.4,2.9,10.4,7.7,13.1l23.4,13.2c10,5.6,22.3-1.6,22.3-13.1,0-5.4-2.9-10.4-7.7-13.1h0Z"/>
    <path class="cls-4" d="M187.5,54.7c-13.4,0-24.3,10.9-24.3,24.3v234.9h107V77.5c-24.8-14.9-53.2-22.8-82.8-22.8h0Z"/>
    <path class="cls-4" d="M411.3,290.4h-75.1l-65.8,23.6v127.8h177.8l56.4-60c0-49.8-42.6-91.4-93.2-91.4Z"/>
    <path class="cls-2" d="M301.2,101.6c-9.3-9.2-19.6-17.3-30.8-24-21.3,9.2-37,30.4-37,56.3v156.5h81.6c13.6-13.6,21.3-32.1,21.3-51.4v-52.6c0-31.8-12.5-62.4-35-84.9h0Z"/>
    <path class="cls-3" d="M298,382.4c0-34.5,13.7-67.7,38.1-92.1h-21.3c-22.7,0-36.4-17-36.4-35v-50c0-53-45.1-84.7-97.3-81.3l-34.2-34c-10-9.9-27.1-2.8-27.1,11.3v51.9l-85.4,85.4,99.1,99.2v43.8l41.1,60h95.7l29.7-36.5c-1.3-7.5-2-15.2-2-22.8h0Z"/>
    <path class="cls-2" d="M380.8,381.7c-21.9,21.9-52.6,29.7-80.8,23.5v56.3l36.1,12.9h75.1c54.5,0,93.2-43.4,93.2-92.8-34.1-34.1-89.5-34.1-123.7,0Z"/>
    <path class="cls-4" d="M257.2,381.7c-34.1-34.1-89.5-34.1-123.7,0,0,49.4,38.8,92.8,93.2,92.8h109.4c-18.8-18.8-31.5-43-36.1-69.3-16.2-3.6-31.1-11.7-42.9-23.5h0Z"/>
    <path class="cls-2" d="M165.5,324l-85.3-85.3c-12.6-12.6-33.1-12.6-45.8,0-36.7,36.7-35.9,96.7,2.3,132.4,36.4,34,93.5,32.2,128.8-3,12.2-12.2,12.2-31.9,0-44.1Z"/>
    <ellipse class="cls-5" cx="170" cy="263.5" rx="31.4" ry="25"/>
  </g>

  <g class="outline">
    <path d="M477.7,307.9l9.6-17.1c.7,0,1.5.1,2.2.1,4.3,0,8.6-1.2,12.3-3.7,6.4-4.2,10.2-11.2,10.2-18.8s-4.4-15.6-11.5-19.6l-23.4-13.2c-7-4-15.4-3.9-22.4.2-7,4.1-11.1,11.3-11.1,19.4s1.6,9.7,4.5,13.5l-10,17.8c-8.7-2.4-17.7-3.7-26.8-3.7h-80.7c8.5-12.9,13.1-28,13.1-43.9v-52.6c0-33.8-13.6-66.7-37.2-90.2-9.7-9.6-20.5-18.1-32.3-25.2-11.1-6.6-22.9-12-35.2-15.9-3.9-1.3-8.2.9-9.4,4.9-1.3,3.9.9,8.2,4.9,9.4,11.2,3.6,21.9,8.4,32,14.5,10.7,6.4,20.6,14.1,29.4,22.9,20.8,20.7,32.8,49.7,32.8,79.5v52.6c0,16.3-6,31.7-16.8,43.7-13.3-1.3-25.8-10.6-25.8-27.4v-50c0-25.9-10.3-49.2-29.1-65.4-17.7-15.3-41.9-23.7-68.1-23.7s-3.1,0-4.7,0l-13.4-13.3v-24.2c0-9.2,7.5-16.8,16.8-16.8s12.8.4,19,1.2c4.1.5,7.9-2.4,8.4-6.5s-2.4-7.9-6.5-8.4c-6.9-.8-13.9-1.3-20.8-1.3-17.5,0-31.8,14.2-31.8,31.8v9.3l-3.5-3.5c-4.4-4.4-10.2-6.8-16.3-6.8-13,0-23.5,10.5-23.5,23.4v35.5l-24.7-16.7s0,0,0,0l-33-22.2h0s-4-2.7-4-2.7c-10.6-7.2-25.1-4.3-32.3,6.3-5.3,7.9-5.3,18.1,0,26l25.9,38.4s0,0,0,0l18.3,27.1c.9,1.4,1.9,2.7,3,3.9l-36.4,36.4C10.4,252.2,0,277.2,0,303.8s11.2,53.8,31.6,72.8c11.5,10.7,24.9,18.4,40,22.7,0,0,0,0,0,0,8.9,2.5,18.1,3.8,27.4,3.8s19.2-1.4,28.4-4.1c8.2,47.9,49.3,83,99.2,83h184.5c20.9,0,40.7-6,57.3-17.4,3.4-2.3,4.3-7,2-10.4-2.3-3.4-7-4.3-10.4-2-14.1,9.7-31,14.8-48.8,14.8h-184.5c-22.6,0-43.6-8.3-59.4-23.3-13.9-13.3-22.9-30.9-25.5-50,10.8-5,20.5-11.8,28.9-20.2,2.3-2.3,4.2-4.8,5.9-7.6,27-6.5,55.5,1.5,75.2,21.2,12.8,12.8,28.9,21.6,46.5,25.5,6.9,1.5,13.9,2.3,20.8,2.3,24.9,0,48.9-9.8,66.9-27.8s35.2-23.4,56.5-23.4h0c20.3,0,39.4,7.5,54.2,21.2-.6,17.4-6.6,34.5-17.1,48.4-2.5,3.3-1.8,8,1.5,10.5,3.3,2.5,8,1.8,10.5-1.5,13-17.3,20.1-38.8,20.1-60.5,0,0,0,0,0,0,0-27.8-12.7-55-34.3-73.8ZM43,137.2l-12.2-18c-1.9-2.8-1.9-6.4,0-9.2,2.5-3.8,7.7-4.8,11.5-2.2l.7.5v29.1ZM462.3,248.8c1.1-.7,4.1-2,7.5,0l23.4,13.2c2.4,1.3,3.8,3.8,3.8,6.5s-1.2,4.9-3.4,6.3c-2.2,1.4-4.7,1.7-7.1.6-.3-.1-.5-.2-.7-.3l-23.4-13.2c-.2-.1-.4-.2-.7-.4-2-1.4-3.2-3.7-3.2-6.1,0-3.9,2.6-5.8,3.7-6.5ZM460.2,277.8l13.1,7.3-7.7,13.7c-4.2-2.7-8.6-5.1-13.2-7.1l7.8-14ZM91,140.5l16.8,11.4c.6.4,1.1.8,1.6,1.2l-18.5,18.5v-31.1ZM58,159.4v-41.2l18,12.1v55.6c-.3-.4-.7-.8-1-1.3l-17-25.3ZM164.9,356.2c-1.2,2.5-2.7,4.7-4.7,6.6-8.4,8.4-18.2,14.8-29.2,19.2,0,0,0,0,0,0,0,0,0,0,0,0-10.2,4.1-21,6.1-31.9,6.1s-15.8-1.1-23.4-3.3c0,0,0,0,0,0-12.8-3.7-24.2-10.1-33.9-19.2-17.3-16.2-26.9-38.2-26.9-61.9s8.8-43.8,24.8-59.8c9.7-9.7,25.5-9.7,35.2,0l85.3,85.3c7.1,7.1,8.9,17.9,4.7,26.9ZM375.5,376.4c-19.4,19.4-47,27.4-73.9,21.5-14.9-3.3-28.4-10.7-39.2-21.5-21.2-21.2-51.2-31-80.5-26.8,1-11.2-2.9-22.6-11.2-30.9l-85.3-85.3c-6.6-6.6-15.1-10.4-23.8-11.4l63.4-63.4s0,0,.1-.1c0-.1.2-.2.3-.3,0,0,.1-.2.2-.2,0-.1.2-.2.3-.4,0,0,.1-.2.2-.2,0-.1.2-.2.2-.4,0,0,0-.2.1-.3,0-.1.1-.2.2-.4,0,0,0-.2.1-.3,0-.1,0-.2.1-.4,0-.1,0-.2.1-.3,0-.1,0-.2,0-.4,0-.1,0-.2,0-.3,0-.1,0-.2,0-.4,0-.1,0-.2,0-.4,0-.1,0-.3,0-.4,0,0,0-.1,0-.2v-51.9c0-5.3,4.3-8.4,8.5-8.4s3.7.4,5.8,2.5l34.2,34s0,0,0,0c0,0,0,0,0,0l14,13.9c1.5,1.4,3.4,2.2,5.3,2.2s3.9-.7,5.3-2.2c2.9-2.9,2.9-7.7,0-10.6l-.7-.7c18.3,1.9,34.8,8.6,47.3,19.4,15.6,13.5,23.9,32.2,23.9,54v50c0,20.6,15.4,42.5,43.9,42.5h96.4c9.5,0,18.9,1.6,27.9,4.7,8.8,3.1,16.9,7.5,24.3,13.1,16.1,12.3,27.2,29.8,31.5,48.7-36.8-24.4-87.1-20.3-119.5,12.1ZM67.2,258.9l-8.1-1.5c-11-2-21.5,5.4-23.5,16.4-.7,4.1,2,8,6.1,8.7.4,0,.9.1,1.3.1,3.6,0,6.7-2.6,7.4-6.2.5-2.8,3.2-4.7,6.1-4.2l8.1,1.5c4.1.7,8-2,8.7-6.1.7-4.1-2-8-6.1-8.7Z"/>
  </g>
</svg>