<svg xmlns="http://www.w3.org/2000/svg" viewBox="0 0 512 512" id="uni2">
  <defs>
    <style>
      .cls-1 { fill: #fce3a0; }
      .cls-2 { fill: #ffdbe0; }
      .cls-3 { fill: #ff8e9e; }
      .cls-4 { fill: #efedff; }
      .cls-5 { fill: #ffb5c0; }
      .cls-6 { display: none; }
      .cls-7 { fill: #ffce71; }
    </style> 
  </defs>

  <g class="fill">
    <path class="cls-1" d="M112,144.9l-28.5-19.3h-10.7l-22.3-22.3-4-2.7c-6.3-4.2-14.6-3.4-20,1.9-5.3,5.3-6.1,13.7-1.9,20l25.9,38.4h12.5l20.5,38.8c11.9,4.6,26.3,1.6,35.3-9.4.4-.5.8-1,1.1-1.5v-36.4c-2.2-3-4.8-5.6-7.9-7.6Z"/>
    <path class="cls-7" d="M50.5,103.4v57.6l18.3,27.2c3.8,5.6,9,9.5,14.7,11.7v-74.2s-33-22.3-33-22.3Z"/>
    <path class="cls-4" d="M355,143c0-30.4-24.6-55-55-55-6.4,0-12.7,1.1-18.7,3.3-8.9-25.2-33-43.3-61.3-43.3s-65,29.1-65,65,12.8,44.5,31.8,55.9h0l110.9,66.1c12,7.1,27.2,6.5,38.5-1.8,8.7-6.4,14.4-16.7,14.4-28.3s-3.9-18.3-10.1-24.6c9.1-9.8,14.6-22.9,14.6-37.3Z"/>
    <path class="cls-2" d="M411.3,249.6h-35.1c-15,0-29.4-5.9-40.1-16.4h-42.6v200.6h83.7c1.4,17.3,5.4,33.2,11.3,45.5h56.4c7.1-14.9,11.6-35.2,11.8-56.8,28.7-15.8,47.8-46.4,47.8-81.5,0-51.3-42.6-91.4-93.2-91.4h0Z"/>
    <path class="cls-5" d="M336.2,233.2l-83.4-82.3c-18.8-18.6-44.4-29.3-71.6-27.5l-34-33.7c-10.1-10-27.3-2.9-27.3,11.4v51.6l-85.4,85.4,107.1,107.3h46l35.2,35.2c18.6,18.6,40.5,32.7,64.5,41.7.2,21.7,4.6,42.1,11.8,57h56.3c5.9-12.3,10-28.3,11.4-45.4-83.5-34.4-97.8-144.7-30.5-200.6h0Z"/>
    <path class="cls-4" d="M327.2,504c11,0,20.9-9.7,28.1-24.8-6.9-7.8-16.9-12.7-28.1-12.7s-21.3,4.9-28.2,12.7c7.2,15.1,17.2,24.8,28.2,24.8ZM34.5,238c-18,18-27,41.3-27,65.1s9,47.1,27,65.1c36,36,94.3,36,130.2,0l22.9-22.9-107.3-107.3c-12.6-12.6-33.1-12.6-45.8,0Z"/>
    <ellipse class="cls-3" cx="170" cy="262.7" rx="31.4" ry="25"/>
    <path class="cls-4" d="M416.7,466.5c-11.2,0-21.3,4.9-28.2,12.8,7.2,15.1,17.2,24.7,28.2,24.7s21-9.6,28.2-24.7c-6.9-7.8-16.9-12.8-28.2-12.8Z"/>
  </g>

  <g class="outline">
    <path d="M411.3,242.1h-35.1c-10.4,0-20.4-3.2-28.8-9.2,6.7-7.7,10.6-17.6,10.6-28s-2.8-17.5-7.9-24.6c8-10.7,12.3-23.7,12.3-37.3s-1.2-14.2-3.6-20.9c-1.4-3.9-5.7-5.9-9.6-4.6-3.9,1.4-5.9,5.7-4.6,9.6,1.8,5.1,2.7,10.4,2.7,15.9,0,10.9-3.7,21.4-10.6,29.8-3.8.4-6.7,3.6-6.7,7.5s3,7.1,6.8,7.5c3.9,4.9,6,10.8,6,17.2s-2.4,13-6.7,17.9l-78.3-77.3c-20.1-19.9-46.8-30.6-74-29.8l-19.2-19.1c7.2-24,29.7-41.1,55.1-41.1s43.9,13.9,52.9,35c-2.2,3.5-1.2,8.1,2.3,10.3,1.3.8,2.7,1.2,4,1.2,2.5,0,4.9-1.2,6.3-3.5l.6-1c4.5-1.4,9.1-2.1,13.8-2.1,10.9,0,21.6,3.8,30,10.7,1.4,1.1,3.1,1.7,4.7,1.7s4.3-.9,5.8-2.8c2.6-3.2,2.1-7.9-1.1-10.6-11.1-9.1-25.1-14.1-39.6-14.1s-9.6.6-14.3,1.7c-11.8-25.2-37.4-41.7-65.6-41.7s-32.8,5.8-45.7,16.2c-9.3,7.6-16.6,17.3-21.2,28.3l-.9-.9c-6.8-6.8-16.6-8.7-25.5-5-8.9,3.7-14.4,12-14.4,21.6v35.5l-24.7-16.7s0,0,0,0l-32.9-22.2s0,0,0,0l-4-2.7c-9.2-6.2-21.6-5-29.5,2.8-7.9,7.9-9.1,20.3-2.8,29.5l44.2,65.5c.9,1.4,1.9,2.7,3,3.9l-36.4,36.4C10.4,251.5,0,276.5,0,303.1s10.4,51.6,29.2,70.4c19.4,19.4,44.9,29.1,70.4,29.1s51-9.7,70.4-29.1l17.6-17.6,29.9,29.9c18.1,18.1,39,32,62.4,41.5.8,20.4,5.1,39.9,12.4,55.1,0,0,0,0,0,0,0,0,0,.1,0,.2,8.9,18.5,21.3,28.8,34.8,28.8s23.9-8.8,32.6-24.7c.8-1.4,1.5-2.8,2.2-4.3,0,0,0,0,0,0,4.3-9.1,7.7-19.8,9.9-31.3,2.1,11,5.3,21.5,9.5,30.6.2.5.4,1.1.7,1.6,8.1,16.7,19.9,28.2,34.5,28.2s25.9-10.2,34.8-28.7c0,0,0-.2.1-.3,0,0,0,0,0,0,7.4-15.4,11.7-35,12.4-55.6,29.7-18,47.9-50.5,47.9-85.8,0-54.5-45.2-98.9-100.7-98.9ZM43,136.5l-12.2-18.1c-2.2-3.3-1.8-7.7,1-10.5s7.2-3.2,10.5-1l.7.5v29.1ZM91,139.8l16.8,11.4c.6.4,1.1.8,1.6,1.2l-18.5,18.5v-31.1ZM58,158.7v-41.2l18,12.1v55.6c-.3-.4-.7-.9-1-1.3l-17-25.3ZM159.4,362.9c-33,33-86.6,33-119.6,0-16-16-24.8-37.2-24.8-59.8s8.8-43.8,24.8-59.8c9.7-9.7,25.5-9.7,35.2,0l102,102-17.6,17.6ZM327.2,496.5c-6.4,0-13.2-5.8-18.9-15.7,5.3-4.3,12-6.8,18.9-6.8s13.6,2.4,18.9,6.7c-5.8,10.1-12.6,15.8-18.9,15.8ZM416.7,496.5c-6.2,0-13.1-5.6-19-15.7,5.3-4.4,12-6.8,19-6.8s13.6,2.4,18.9,6.7c-5.7,9.9-12.5,15.8-18.9,15.8ZM453.1,415.9c-2.4,1.3-3.9,3.8-3.9,6.5-.2,16.9-3,32.2-7.3,44.4-7.4-5-16.1-7.8-25.2-7.8s-17.9,2.8-25.3,7.8c-2.6-7.3-4.6-15.9-5.9-25.5h6.4c4.1,0,7.5-3.4,7.5-7.5s-3.4-7.5-7.5-7.5h-40c-4.1,0-7.5,3.4-7.5,7.5s3.4,7.5,7.5,7.5h6.4c-1.2,9.1-3.3,17.7-6,25.4-7.4-5-16.1-7.7-25.2-7.7s-17.9,2.8-25.2,7.8c-4.3-12.2-7.1-27.6-7.3-44.6,0-3.1-2-5.9-4.9-7-23.2-8.7-44-22.2-61.8-40L85.5,232.7c-6.6-6.6-15.1-10.4-23.7-11.4l63.4-63.4s0,0,.1-.1c0,0,.2-.2.3-.3,0,0,0,0,.1-.1,0,0,0,0,0-.1,0,0,.2-.2.2-.3,0,0,0-.1.1-.2,0,0,0-.1,0-.2,0,0,.1-.2.2-.3,0,0,0-.1.1-.2,0,0,0-.1,0-.2,0,0,0-.2.1-.3,0,0,0-.1,0-.2,0,0,0-.1,0-.2,0,0,0-.2,0-.3,0,0,0-.2,0-.2,0,0,0-.1,0-.2,0,0,0-.2,0-.3,0,0,0-.2,0-.3,0,0,0-.1,0-.2,0-.1,0-.2,0-.3,0,0,0-.2,0-.2,0,0,0-.1,0-.2,0-.1,0-.2,0-.4,0,0,0-.2,0-.2v-51.9c0-5.2,3.9-7.2,5.2-7.7,1.2-.5,5.4-1.9,9.1,1.8l44.2,44c2.9,2.9,7.7,2.9,10.6,0,1.9-1.9,2.6-4.7,1.9-7.1,18.1,2.6,35.4,11.2,49.1,24.7l83.4,82.3c12.1,12,28.2,18.6,45.3,18.6h35.1c47.3,0,85.7,37.6,85.7,83.9s-16.8,60-43.9,74.9ZM67.2,258.9l-8.1-1.5c-11-2-21.5,5.4-23.5,16.4-.7,4.1,2,8,6.1,8.7.4,0,.9.1,1.3.1,3.6,0,6.7-2.6,7.4-6.2.5-2.8,3.2-4.7,6.1-4.2l8.1,1.5c4.1.7,8-2,8.7-6.1.7-4.1-2-8-6.1-8.7Z"/>
  </g>
</svg>