<svg xmlns="http://www.w3.org/2000/svg" viewBox="0 0 512 512" id="uni3">
  <defs>
    <style>
      .cls-1 { fill: #c9aaf2; }
      .cls-2 { fill: #fce3a0; }
      .cls-3 { fill: #fff1d4; }
      .cls-4 { fill: #fff; }
      .cls-5 { fill: #d9c3f6; }
      .cls-6 { fill: #e9dcfa; }
      .cls-8 { fill: #ffce71; }
    </style>
  </defs>

  <g class="fill">
    <path class="cls-2" d="M416.7,467c-11.2,0-21.3,5-28.2,12.8,7.2,15.1,17.2,24.7,28.2,24.7s20.9-9.8,28.1-24.7c-6.9-7.8-16.9-12.8-28.1-12.8ZM112,145.5l-28.5-19.3h-10.7l-22.3-22.3-4-2.7c-6.3-4.2-14.6-3.4-20,1.9-5.3,5.3-6.1,13.7-1.9,20l25.9,38.4h12.5l20.5,38.8c11.9,4.6,26.3,1.6,35.3-9.4.4-.5.8-1,1.1-1.5v-36.4c-2.2-3-4.8-5.6-7.9-7.6Z"/>
    <path class="cls-8" d="M187.5,54.5c-13.4,0-24.3,10.9-24.3,24.3v154.9h107V77.3c-24.8-14.9-53.2-22.8-82.8-22.8Z"/>
    <path class="cls-2" d="M336.2,186.2c0-31.8-12.4-62.4-35-84.8-9.3-9.2-19.6-17.3-30.9-24.1-21.3,9.2-37,30.4-37,56.3v100.1h142.9l-40-47.5h0ZM460.4,77.7h-39.7c-15.8,0-29.5,3.2-42.2,10.7l-26.9,91h86.5c6.8-.5,13.1-3.4,17.9-8.2,5.2-5.2,8.4-12.3,8.4-20.2s-2.2-12.4-5.8-17.2h2.9c15.8,0,27.5-11.7,27.5-27.5s-3-14.8-8.1-19.9c-5.3-5.3-12.4-8.6-20.4-8.6h0Z"/>
    <path class="cls-8" d="M438.2,179.4c-32.9,0-59.6-26.7-59.6-59.6v-31.4c-25.4,14.9-42.4,42.4-42.4,73.9v71.3l57.1,60v-76h18.1c7.9,0,15-3.2,20.2-8.4,5.2-5.2,8.4-12.3,8.4-20.2,0-3.4-.6-6.7-1.7-9.8h0Z"/>
    <path class="cls-8" d="M50.5,103.9v57.6l18.3,27.2c3.8,5.6,9,9.5,14.7,11.7v-74.2l-33-22.3h0Z"/>
    <path class="cls-5" d="M437.4,253.9c-8.5-2.5-17.3-3.7-26.2-3.7h-36.4c-12.7,0-27.8-5.6-38.7-16.4h-42.6v200.6h83.7c1.4,17.3,5.4,33.2,11.3,45.5h56.3c7.2-14.9,11.7-35,11.9-56.8,28.7-15.8,48.1-46.4,47.8-81.5-.3-41.7-28.8-76.6-67.1-87.7h0Z"/>
    <path class="cls-1" d="M336.2,233.7l-83.4-82.3c-18.8-18.6-44.4-29.3-71.6-27.5l-34.2-34c-10-9.9-27.1-2.8-27.1,11.3v51.9l-85.4,85.4,107.1,107.3h46l35.2,35.2c18.6,18.6,40.5,32.7,64.5,41.7.2,21.7,4.6,42.1,11.8,57.1h56.3c5.9-12.3,10-28.3,11.4-45.5-83.5-34.4-97.8-144.7-30.5-200.6Z"/>
    <path class="cls-6" d="M34.5,238.5c-36,36-36,94.3,0,130.2,36,36,94.3,36,130.2,0l22.9-22.9-107.3-107.3c-12.6-12.6-33.1-12.6-45.8,0Z"/>
    <path class="cls-3" d="M475.6,66.4c-6.7-1.8-12-7-13.7-13.7-1.3-5.2-4.1-8.9-7.4-8.9s-6.1,3.7-7.4,8.9c-1.8,6.7-7,12-13.7,13.7-5.2,1.3-8.9,4.1-8.9,7.4s3.7,6.1,8.9,7.4c6.7,1.8,12,7,13.7,13.7,1.3,5.2,4.1,8.9,7.4,8.9s6.1-3.7,7.4-8.9c1.8-6.7,7-12,13.7-13.7,5.2-1.3,8.9-4.1,8.9-7.4,0-3.3-3.7-6.1-8.9-7.4ZM254.4,122.1c-6.7-1.8-12-7-13.7-13.7-1.3-5.2-4.1-8.9-7.4-8.9s-6.1,3.7-7.4,8.9c-1.8,6.7-7,12-13.7,13.7-5.2,1.3-8.9,4.1-8.9,7.4s3.7,6.1,8.9,7.4c6.7,1.8,12,7,13.7,13.7,1.3,5.2,4.1,8.9,7.4,8.9s6.1-3.7,7.4-8.9c1.8-6.7,7-12,13.7-13.7,5.2-1.3,8.9-4.1,8.9-7.4,0-3.3-3.7-6.1-8.9-7.4h0ZM311.7,467.1c-6.7-1.8-12-7-13.7-13.7-1.3-5.2-4.1-8.9-7.4-8.9s-6.1,3.7-7.4,8.9c-1.8,6.7-7,12-13.7,13.7-5.2,1.3-8.9,4.1-8.9,7.4s3.7,6.1,8.9,7.4c6.7,1.8,12,7,13.7,13.7,1.3,5.2,4.1,8.9,7.4,8.9s6.1-3.7,7.4-8.9c1.8-6.7,7-12,13.7-13.7,5.2-1.3,8.9-4.1,8.9-7.4,0-3.3-3.7-6.1-8.9-7.4Z"/>
    <path class="cls-2" d="M327.2,467c-11.2,0-21.3,5-28.2,12.8,7.2,15.1,17.2,24.7,28.2,24.7s20.9-9.6,28.1-24.7c-6.9-7.8-16.9-12.8-28.1-12.8h0Z"/>
    <ellipse class="cls-4" cx="170" cy="263.2" rx="31.4" ry="25"/>
  </g>

  <g class="outline">
    <path d="M31.7,278.1c-.7,4.1,2,8,6.1,8.7.4,0,.9.1,1.3.1,3.6,0,6.7-2.6,7.4-6.2.5-2.8,3.2-4.7,6.1-4.2l8.1,1.5c4.1.7,8-2,8.7-6.1.7-4.1-2-8-6.1-8.7l-8.1-1.5c-11-2-21.5,5.4-23.5,16.4ZM512,341.5c-.2-21.9-7.4-42.6-20.9-59.9-13-16.6-31.3-29.1-51.6-34.9-9.2-2.7-18.7-4-28.2-4h-10.5v-17.4h10.6c11.7,0,22.8-5.8,29.5-15.4,5.1-7.3,7.3-16,6.3-24.6,9.5-3.1,17.3-10,21.6-19.5,3.7-8.3,4.2-17.3,1.6-25.5,12.2-2.9,21.6-11.9,24.9-24.5,3.2-11.9.2-23.9-7.3-32.7,3.6-3.6,4.1-7.6,4.1-9.2,0-2.6-1-11.2-14.5-14.7-4.2-1.1-7.3-4.2-8.4-8.3-2.4-9.1-7.8-14.5-14.7-14.5s-12.3,5.4-14.7,14.5c-1.1,4.2-4.2,7.3-8.3,8.4-9.5,2.5-12.8,7.6-13.9,11.2-24.8.8-47.4,10.8-63.8,28.5-9.6,10.2-16.7,22.7-20.8,36.1-6.3-14.4-15.2-27.7-26.4-38.8-9.7-9.7-20.6-18.1-32.3-25.2-26-15.6-56-23.9-86.7-23.9s-31.8,14.2-31.8,31.8v9.3l-3.5-3.5c-6.8-6.8-16.6-8.7-25.5-5-8.9,3.7-14.4,12-14.4,21.6v35.5l-61.7-41.6c-5.2-3.5-11.4-4.7-17.5-3.5-6.1,1.2-11.4,4.7-14.8,9.8-5.3,7.9-5.3,18.1,0,26l44.2,65.5c.9,1.4,1.9,2.7,3,3.9l-36.4,36.4s0,0,0,0,0,0,0,0c-38.8,38.8-38.8,102,0,140.8,18.8,18.8,43.8,29.2,70.4,29.2s51.6-10.4,70.4-29.2l17.6-17.6,29.9,29.9c18.1,18.1,39,32,62.4,41.5.2,4.6.5,9.1,1.1,13.7-2.2,2.5-4,5.8-5,9.9-1.1,4.2-4.2,7.3-8.3,8.4-9.1,2.4-14.5,7.8-14.5,14.7s5.4,12.3,14.5,14.7c4.1,1.1,7.3,4.2,8.3,8.3,2.4,9.1,7.8,14.5,14.7,14.5s10.8-4.1,13.6-11.1c6.9,7.3,14.8,11.1,23.1,11.1,13.5,0,25.9-10.3,34.8-28.9,0,0,0,0,0,0,4.3-9,7.7-19.8,9.8-31.3,2.1,11.6,5.5,22.3,9.8,31.4,0,0,0,0,0,0,8.9,18.6,21.3,28.9,34.9,28.9s25.8-10.3,34.8-28.9c0,0,0-.1,0-.2,7.4-15.4,11.8-35,12.5-55.6,9.7-5.9,18.3-13.4,25.5-22.3,2.6-3.2,2.1-7.9-1.1-10.6-3.2-2.6-7.9-2.1-10.6,1.1-6.9,8.5-15.3,15.5-24.9,20.8-2.4,1.3-3.9,3.8-3.9,6.5-.1,16.1-2.7,31.5-7.3,44.4-7.4-5-16.1-7.8-25.2-7.8s-17.8,2.8-25.2,7.8c-2.7-7.7-4.7-16.4-5.9-25.5h6.4c4.1,0,7.5-3.4,7.5-7.5s-3.4-7.5-7.5-7.5h-40c-4.1,0-7.5,3.4-7.5,7.5s3.4,7.5,7.5,7.5h6.4c-1.2,9.1-3.3,17.8-6,25.5-7.4-5-16.1-7.8-25.1-7.8s-7.2.4-10.6,1.3c-1-.4-2-.7-3-.9-4.2-1.1-7.3-4.2-8.4-8.3-1.7-6.7-5.2-11.4-9.6-13.4-.6-5.1-.9-10.3-.9-15.5,0-3.1-2-5.9-4.9-7-23.2-8.7-44-22.2-61.8-40l-35.2-35.2s0,0,0,0l-107.3-107.3c-6.6-6.6-15.1-10.4-23.8-11.4l63.4-63.4s0,0,0-.1c0-.1.2-.2.3-.3,0,0,.1-.2.2-.2,0-.1.2-.2.3-.4,0,0,.1-.2.2-.2,0-.1.2-.2.2-.4,0,0,0-.2.1-.3,0-.1.1-.3.2-.4,0,0,0-.2.1-.3,0-.1,0-.2.1-.4,0-.1,0-.2.1-.3,0-.1,0-.2,0-.4,0-.1,0-.2,0-.3,0-.1,0-.2,0-.4,0-.1,0-.2,0-.3,0-.1,0-.3,0-.4,0,0,0-.1,0-.2v-51.9c0-5.2,3.9-7.2,5.2-7.7,1.2-.5,5.4-1.9,9.1,1.8l36,35.6c2.8,2.8,7.3,2.9,10.2.3,2.7,0,5.4.2,8.1.5,1,5.8,6.2,10.4,14.3,12.5,4.1,1.1,7.3,4.2,8.3,8.3,3.5,13.5,12.1,14.5,14.7,14.5h0c2.3,0,9.6-.9,13.5-11,.2.2.5.5.7.7l83.4,82.3c11.6,11.5,28.5,18.6,44,18.6h36.4c8.2,0,16.3,1.1,24.1,3.4,17.3,5,32.9,15.6,44,29.8,11.4,14.7,17.6,32.2,17.7,50.8v.6c0,10.2-1.8,20.2-5.3,29.6-1.5,3.9.5,8.2,4.4,9.7.9.3,1.8.5,2.6.5,3,0,5.9-1.9,7-4.9,4.2-11.1,6.3-22.9,6.3-34.9v-.8ZM43,137l-12.2-18c-1.9-2.8-1.9-6.4,0-9.2,1.2-1.8,3.1-3.1,5.3-3.5,2.2-.4,4.4,0,6.2,1.3l.7.5v29.1ZM416.7,474.5c6.9,0,13.5,2.4,18.9,6.8-5.8,9.9-12.6,15.7-18.9,15.7s-13.2-5.7-18.9-15.7c5.3-4.3,12-6.8,18.9-6.8ZM328,474.5c6.6.2,12.9,2.6,18,6.8-5.7,10.1-12.5,15.7-18.9,15.7s-10-3.8-13.5-7.9c9-2.4,14.3-7.8,14.3-14.6ZM290.4,455.3c0-.2,0-.4.2-.5,0,.2.1.4.2.6,2.4,9.3,9.7,16.6,19.1,19.1.2,0,.4,0,.5.1-.2,0-.4.1-.5.1-4.5,1.2-8.6,3.5-11.9,6.7,0,0-.1.1-.2.2,0,0,0,0,0,0,0,0-.2.2-.2.2,0,0,0,0-.1.1-3.1,3.3-5.4,7.3-6.5,11.7,0,.2,0,.4-.2.5,0-.2-.1-.4-.2-.6-2.4-9.3-9.7-16.6-19.1-19.1-.2,0-.4-.1-.5-.2.2,0,.4-.1.5-.2,9.3-2.4,16.6-9.7,19.1-19.1ZM74.9,243.8l102,102-17.6,17.6c-16,16-37.2,24.8-59.8,24.8s-43.8-8.8-59.8-24.8c-33-33-33-86.6,0-119.6h0c.7-.7,1.4-1.3,2.2-1.9.6-.5,1.3-1,2-1.4.6-.4,1.1-.7,1.7-1,0,0,0,0,.1,0,0,0,0,0,0,0,9.4-4.9,21.3-3.4,29.1,4.4ZM76,185.8c-.3-.4-.7-.9-1-1.3l-17-25.3v-41.2l18,12.1v55.6ZM91,171.4v-31.1l16.8,11.4c.6.4,1.1.8,1.6,1.2l-18.5,18.5ZM252.5,129.6c-5.7,1.5-10.7,4.8-14.2,9.3,0,0,0,0-.1.2,0,0,0,0,0,0-2.2,2.8-3.8,6.1-4.7,9.6,0,.2,0,.4-.2.5,0-.2-.1-.4-.2-.6-2.4-9.3-9.7-16.6-19.1-19.1-.2,0-.4,0-.5-.2.2,0,.4-.1.5-.2,9.3-2.4,16.6-9.7,19.1-19.1,0-.2,0-.4.1-.5,0,.2.1.4.2.6,2.4,9.3,9.7,16.6,19.1,19.1.2,0,.4,0,.5.1-.2,0-.4.1-.5.1ZM328.7,215.7l-70.6-69.7c-.6-.6-1.3-1.2-1.9-1.8,0,0,0,0,.1,0,0,0,0,0,0,0,13.4-3.5,14.5-12.1,14.5-14.7,0-2.6-1-11.2-14.5-14.7-4.2-1.1-7.3-4.2-8.4-8.3-3.5-13.5-12.1-14.5-14.7-14.5h0c-2.6,0-11.2,1-14.7,14.5-1.1,4.2-4.2,7.3-8.3,8.4-2.6.7-4.8,1.6-6.8,2.7-6.4-1.1-12.9-1.6-19.3-1.4l-13.4-13.3v-24.2c0-9.2,7.5-16.8,16.8-16.8,28,0,55.3,7.5,78.9,21.7,10.7,6.4,20.6,14.2,29.4,23,20.8,20.7,32.8,49.7,32.8,79.5v29.5ZM435.3,73.6c9.3-2.4,16.6-9.7,19.1-19.1,0-.2,0-.4.2-.5,0,.2.1.4.2.6,2.4,9.3,9.7,16.6,19.1,19.1.2,0,.4,0,.5.1-.2,0-.4.1-.5.1-.4.1-.8.2-1.2.3,0,0,0,0,0,0-8.8,2.7-15.6,9.8-17.9,18.7,0,.2,0,.4-.2.5,0-.2-.1-.4-.2-.6h0c-2.4-9.3-9.7-16.6-19.1-19.1-.2,0-.4,0-.5-.2.2,0,.4-.1.5-.2ZM385.7,242.6h-10.9c-10.8,0-22.5-4.6-31.2-12.2v-68c0-37.9,28.8-77.1,77.1-77.1h3.1c1.9,1.2,4.4,2.4,7.6,3.2,4.1,1.1,7.3,4.2,8.3,8.3h0c3.5,13.5,12.1,14.5,14.7,14.5h0c2.6,0,11.2-1,14.7-14.5.7-2.8,2.4-5.1,4.7-6.7,7.2,5.8,8.7,14.8,6.9,21.7-.9,3.4-4.9,14.4-19.3,14.4h-52.3c-4.1,0-7.5,3.4-7.5,7.5s3.4,7.5,7.5,7.5h45.3c3,5.7,3.2,12.3.5,18.4-3.2,7-9.6,11.6-17.2,12.3h-44.6c-4.1,0-7.5,3.4-7.5,7.5s3.4,7.5,7.5,7.5h39.1c.6,5-.7,10-3.7,14.3-4,5.7-10.3,9-17.2,9h-30.1c-4.1,0-7.5,3.4-7.5,7.5s3.4,7.5,7.5,7.5h4.4v17.4Z"/>
  </g>
</svg>