<svg xmlns="http://www.w3.org/2000/svg" viewBox="0 0 512 512" id="uni4">
  <defs>
    <style>
      .cls-1 { fill: #676fb2; }
      .cls-2 { fill: #fce3a0; }
      .cls-3 { fill: #8288cb; }
      .cls-4 { fill: #d4d4ff; }
      .cls-5 { fill: #ff8e9e; }
      .cls-6 { fill: #ffb5c0; }
      .cls-7 { fill: #f8f8f8; }
      .cls-9 { fill: #ffce71; }
      .cls-10 { fill: #7ce3ff; }
    </style>
  </defs>

  <g class="fill">
    <path class="cls-6" d="M313.6,271.8c-.7.6-1.4,1.2-2.1,1.8l2.6,2.6c-.4-1.4-.5-2.9-.4-4.4h-.1ZM305,122.1c-12.8-17.4-28.9-31.5-48.1-41.5-12.5-6.5-26.4-10-40.6-10l-25.8,14.5v71.5l25.8,9.1h101.3l8.9-14.6-21.5-29.1h0Z"/>
    <path class="cls-5" d="M216.4,70.7c-23.6,0-46.3,9.3-63.1,25.7l-9.6,9.4c-19,6.2-39-.2-51.1-14.5-6.3-7.5-18.6-3.9-19.5,5.8-.9,10.3,2.5,21,10.5,28.9v39.7h132.9c-26.3-26.3-26.3-68.8,0-95.1h0Z"/>
    <path class="cls-2" d="M112,145.3l-28.5-19.3h-10.7l-22.3-22.3-4-2.7c-6.3-4.2-14.6-3.4-20,1.9-5.3,5.3-6.1,13.7-1.9,20l25.9,38.4h12.5l20.5,38.8c11.9,4.6,26.3,1.6,35.3-9.4.4-.5.8-1,1.1-1.5v-36.4c-2.2-3-4.8-5.6-7.9-7.6h0Z"/>
    <path class="cls-9" d="M50.5,103.8v57.6l18.3,27.2c3.8,5.6,9,9.5,14.7,11.7v-74.2l-33-22.3h0Z"/>
    <path class="cls-3" d="M411.3,250h-35.1c-15,0-29.4-5.9-40.1-16.4h-42.6v200.6h83.7c1.4,17.3,5.4,33.2,11.3,45.5h56.4c7.1-14.9,11.6-35.2,11.8-56.8,28.7-15.8,47.8-46.4,47.8-81.5,0-51.3-42.6-91.4-93.2-91.4h0Z"/>
    <path class="cls-10" d="M419,216c-5.3-20-26.1-35.5-46.2-40.4l-24.8,86.7c-3.8,13.3,7.6,26,21.2,23.7,10.7-1.9,24.8-6.8,33-14.5,15.1-14.2,22.2-35.5,16.9-55.5h-.1Z"/>
    <path class="cls-2" d="M372.9,175.6c-10.8-9.8-30.8-18-46.4-24.4l-12.9,120.6c-.7,9.7,9.6,17.6,19.4,13.1,18.2-8.3,43.5-23,52.7-41.6,11.5-23.6,5.1-51.4-12.8-67.8h0Z"/>
    <path class="cls-1" d="M336.2,233.5l-83.4-82.3c-18.8-18.6-44.4-29.3-71.6-27.5l-34-33.7c-10.1-10-27.3-2.9-27.3,11.4v51.6l-85.4,85.4,107.1,107.3h46l35.2,35.2c18.6,18.6,40.5,32.7,64.5,41.7.2,21.7,4.6,42.1,11.8,57h56.3c5.9-12.3,10-28.3,11.4-45.4-83.5-34.4-97.8-144.7-30.5-200.6h0Z"/>
    <path class="cls-4" d="M327.2,504.3c11,0,20.9-9.7,28.1-24.8-6.9-7.8-16.9-12.7-28.1-12.7s-21.3,4.9-28.2,12.7c7.2,15.1,17.2,24.8,28.2,24.8ZM34.5,238.3c-18,18-27,41.3-27,65.1s9,47.1,27,65.1c36,36,94.3,36,130.2,0l22.9-22.9-107.3-107.3c-12.6-12.6-33.1-12.6-45.8,0h0Z"/>
    <path class="cls-6" d="M326.5,151.2h-73.7c20.4,17.9,31,43.7,31.1,70.1.5,7.8,0,15.6-1.5,23.3s-4,15.2-7.5,22.2c-5.5,11.4,6.5,23.4,18,18.1,7.5-3.4,14.4-7.8,20.6-13.1,9.1-7.8,16.6-17.3,21.9-28,14.9-30.1,11.4-65.9-8.9-92.6h0Z"/>
    <path class="cls-4" d="M416.7,466.8c-11.2,0-21.3,4.9-28.2,12.8,7.2,15.1,17.2,24.7,28.2,24.7s21-9.6,28.2-24.7c-6.9-7.8-16.9-12.8-28.2-12.8Z"/>
    <ellipse class="cls-7" cx="170" cy="263.1" rx="31.4" ry="25"/>
  </g>
  
  <g class="outline">
    <path d="M375.6,243.3c0,.1,0-.1,0,0h0ZM426.6,243.6c2.3-9.8,2.2-19.9-.3-29.6-6.2-23.7-29.8-39.8-49.9-45.3-11.5-9.7-29.8-17.4-45.1-23.7l-20.2-27.4c-13.8-18.6-30.8-33.3-50.6-43.7-13.5-7.1-28.8-10.8-44-10.8s-15.1.9-22.5,2.6c-4,1-6.5,5-5.6,9,1,4,5,6.5,9,5.6,6.2-1.5,12.6-2.2,19-2.2,12.9,0,25.7,3.1,37.1,9.1,17.8,9.3,33.1,22.5,45.5,39.3l21.5,29.1h0c10.8,14.2,16.5,31,16.5,48.7,0,31.7-18.6,60.6-47.3,73.7-.9.4-1.8.6-2.6.6-3.2,0-6.2-2.9-6.2-6s.2-1.7.6-2.6c6.6-13.6,10-28.1,10-43s0-4-.2-6c-.2-25.4-9.3-49.3-25.6-67.5,0-.1-.2-.2-.3-.3l-7.4-7.3c-19.4-19.3-44.7-29.9-71.1-29.9s-1.9,0-2.9,0l-19.7-19.5c2.4-2,5-3.8,7.6-5.5,3.5-2.2,4.5-6.8,2.3-10.3s-6.8-4.5-10.3-2.3c-3.6,2.3-7,4.8-10.3,7.5l-1.3-1.3c-6.9-6.8-16.7-8.7-25.6-5-7.6,3.2-12.8,9.8-14.1,17.7-5.6-2.5-10.6-6.1-14.5-10.8-4.9-5.8-12.7-8.1-19.9-5.8-7.2,2.3-12.1,8.3-12.7,15.8-.3,2.9-.2,5.7,0,8.5l-10.8-7.3s0,0-.2,0l-3.9-2.6c-5.2-3.5-11.4-4.7-17.5-3.5-6.1,1.2-11.4,4.7-14.8,9.8-5.3,7.9-5.3,18.1,0,26l25.9,38.3h0l18.3,27.1c.9,1.4,1.9,2.7,3,3.9l-36.4,36.4h0C10.4,251.8,0,276.8,0,303.4s10.4,51.6,29.2,70.4c18.8,18.8,43.8,29.2,70.4,29.2s51.6-10.4,70.4-29.2l17.6-17.6,29.9,29.9c18.1,18.1,39,32,62.4,41.5.8,20.4,5.1,39.8,12.4,55.1h0c8.9,18.7,21.3,29,34.9,29s25.9-10.3,34.8-29h0c4.3-9,7.7-19.7,9.8-31.2,2.1,11.5,5.4,22.1,9.8,31.3v.2c8.9,18.6,21.3,28.9,34.9,28.9s26-10.3,34.9-28.9h0c7.4-15.4,11.7-35,12.4-55.6,9.7-5.9,18.3-13.4,25.5-22.3,2.6-3.2,2.1-7.9-1.1-10.5s-7.9-2.1-10.5,1.1c-6.9,8.5-15.3,15.5-24.9,20.8-2.4,1.3-3.9,3.8-3.9,6.5-.1,15.8-2.7,31.4-7.3,44.3-7.4-5-16.1-7.7-25.2-7.7s-17.8,2.8-25.2,7.8c-2.7-7.7-4.7-16.4-5.9-25.5h6.4c4.1,0,7.5-3.4,7.5-7.5s-3.4-7.5-7.5-7.5h-40c-4.1,0-7.5,3.4-7.5,7.5s3.4,7.5,7.5,7.5h6.4c-1.2,9-3.3,17.7-6,25.4-3.1-2.1-6.4-3.8-9.9-5-4.8-1.7-10-2.7-15.2-2.7h0c-9.1,0-17.8,2.8-25.2,7.8-4.6-13-7.2-28.8-7.3-44.6,0-3.1-2-5.9-4.9-7-23.2-8.7-44-22.2-61.8-40l-35.2-35.2h0l-107.3-107.3c-6.6-6.6-15.1-10.4-23.8-11.4l63.4-63.4h0c0-.1.2-.2.3-.3,0,0,0-.1.2-.2,0-.1.2-.3.3-.4,0,0,0-.1,0-.2,0-.1.2-.3.2-.4,0,0,0-.2,0-.2,0-.1,0-.3.2-.4,0,0,0-.2,0-.3,0-.1,0-.3,0-.4v-.3c0-.1,0-.3,0-.4v-47.2h0v-5.9c0-5.3,4-7.3,5.2-7.8s5.5-1.9,9.3,1.8l48,47.6c2.9,2.9,7.7,2.9,10.6,0,2.9-2.9,2.9-7.7,0-10.6h-.1c17.5,2.7,33.9,11.2,47.2,24.3l7.3,7.2c13.9,15.5,21.6,35.9,21.6,57.6v.5c.1,1.7.2,3.5.2,5.3,0,12.6-2.8,24.9-8.5,36.5-1.4,2.9-2.1,6-2.1,9.2,0,11.4,9.7,21,21.2,21s6-.7,8.8-1.9c4.8-2.2,9.3-4.7,13.5-7.6,1.5,2.2,3.4,4.1,5.6,5.7,3.6,2.5,7.8,3.8,12,3.8s6-.6,8.8-1.9c3.9-1.8,7.7-3.7,11.5-5.7,4.9,4.8,11.5,7.6,18.4,7.6s3-.1,4.5-.4c11.5-2,27.2-7.4,36.8-16.4,5.7-5.4,10.5-11.8,14-18.8,42.8,4.9,75.7,40.6,75.7,83.3s-1.8,20.6-5.4,30.3c-1.5,3.9.5,8.2,4.4,9.7.9.3,1.8.5,2.6.5,3,0,5.9-1.9,7-4.9,4.2-11.3,6.4-23.3,6.4-35.6,0-49.2-36.8-90.4-85.4-97.7l.9-.9ZM43,136.8l-12.2-18c-1.9-2.8-1.9-6.4,0-9.2,1.2-1.8,3.1-3.1,5.3-3.5.5,0,1.1-.2,1.6-.2,1.6,0,3.2.5,4.6,1.4.2.2.5.3.7.5v29.1h0ZM416.7,474.3c6.9,0,13.6,2.4,18.9,6.8-5.8,10.1-12.5,15.7-18.9,15.7s-13.2-5.7-18.9-15.7c5.3-4.3,12-6.8,18.9-6.8ZM327.2,474.3c6.9,0,13.6,2.4,18.9,6.7-5.8,10.1-12.5,15.8-18.9,15.8s-13.2-5.7-18.9-15.7c5.3-4.3,12-6.8,18.9-6.8ZM74.9,243.6l102,102-17.6,17.6c-33,33-86.6,33-119.6,0s-24.8-37.2-24.8-59.8,8.8-43.8,24.8-59.8h0c9.7-9.7,25.5-9.7,35.1,0h.1ZM76,185.6c-.3-.4-.7-.9-1-1.3l-17-25.3v-41.2c2.7,1.8,4.3,2.9,5.2,3.5h0l.2.2h0l12.5,8.4v55.6h0ZM91,171.2v-31.1l16.8,11.4c.6.4,1.1.8,1.6,1.2l-18.5,18.5h0ZM112.4,136.5c-10.4-7-18.2-12.3-24-16.2-5.8-6-8.6-14.2-7.9-22.5.2-1.9,1.5-2.6,2.3-2.8.7-.2,2.5-.6,4,1.1,6.7,8,15.7,13.9,25.6,17v23.4ZM345.8,269.9c-5.2,3-10.6,5.7-16,8.2-2.8,1.3-5,.2-6.1-.5s-1.8-1.7-2.3-2.8c19.2-17.9,30.6-43.2,30.6-70.3s-2.6-25.7-7.7-37.4c9.1,4.3,17.9,9,23.4,14.1h0c16.2,14.8,20.8,39.1,11.1,58.9-4.9,9.9-16.3,20.2-33.1,29.9h.1ZM409.7,247.3c-2.8,7-7.2,13.4-12.7,18.6-6.7,6.3-19.5,10.9-29.1,12.6-2.4.4-4.5,0-6.3-.7,15.1-9.8,25.4-20.3,30.8-31.2,8.2-16.8,8.5-36,2-52.6,9.2,7.1,15.4,16,17.4,23.9,2.5,9.6,1.8,19.8-2,29.4h0ZM35.6,273.8c-.7,4.1,2,8,6.1,8.7.4,0,.9.1,1.3.1,3.6,0,6.7-2.6,7.4-6.2.5-2.8,3.2-4.7,6.1-4.2l8.1,1.5c4.1.7,8-2,8.7-6.1s-2-8-6.1-8.7l-8.1-1.5c-11-2-21.5,5.4-23.5,16.4h0Z"/>
  </g>
</svg>