<svg xmlns="http://www.w3.org/2000/svg" viewBox="0 0 512 512" id="uni5">
  <defs>
    <style>
      .cls-1 { fill: #fce3a0; }
      .cls-2 { fill: #d4d4ff; }
      .cls-3 { fill: #ffdbe0; }
      .cls-4 { fill: #ff8e9e; }
      .cls-5 { fill: #efedff; }
      .cls-6 { fill: #ffb5c0; }
      .cls-7 { fill: #ea5b70; }
      .cls-8 { fill: #30cd9c; }
      .cls-9 { fill: #70dcba; }
      .cls-10 { fill: #ffce71; }
    </style>
  </defs>

  <g class="fill">
    <path class="cls-10" d="M236.1,43.8c-22.6-6.5-47-.3-63.7,16.4-9-5.6-19.4-8.5-30-8.5-40.1,0-68.1,40.4-53.7,78,5.1,13.3,15,24.2,27.6,30.6h0l161.6,83.1h3.4V91.7c-5.2-23-22.5-41.3-45.1-47.8h-.1Z"/>
    <path class="cls-1" d="M377.2,204.8c-1.5-16.7-13.4-30.3-29.4-34.1,4.9-8.6,7.5-18.6,7.1-29.2-1.4-36.6-38.4-62.5-73.7-49.8-14.2,5-26.3,15.5-32.7,30.4-12,28.2,1.1,60.7,29.2,72.7v48.6l69.7,35.8h0c5.7,2.9,12,4.4,18.4,4.4,22.3,0,40.3-18,40.3-40.3s-12.2-33.8-29-38.7h0v.2Z"/>
    <path class="cls-3" d="M57.5,108.7l-11-7.4c-7.2-4.9-17-3-21.9,4.3-3.6,5.3-3.6,12.3,0,17.6l32.9,48.8h30l-30-63.2h0Z"/>
    <path class="cls-6" d="M112,145.5l-54.5-36.8v63.2l11.3,16.8c3.8,5.6,9,9.5,14.7,11.7,11.9,4.6,26.3,1.6,35.3-9.4.4-.5.8-1,1.1-1.5v-36.4c-2.2-3-4.8-5.5-7.9-7.6Z"/>
    <path class="cls-5" d="M411.3,250.1h-35.1c-15,0-29.4-5.9-40.1-16.4h-42.6v200.6h83.7c1.4,17.3,5.4,33.2,11.3,45.5h56.4c7.1-14.9,11.6-35.2,11.8-56.8,28.7-15.8,47.8-46.4,47.8-81.5,0-51.3-42.6-91.4-93.2-91.4h0Z"/>
    <path class="cls-6" d="M416.7,467c-11.2,0-21.3,4.9-28.2,12.8,7.2,15.1,17.2,24.7,28.2,24.7s21-9.6,28.2-24.7c-6.9-7.8-16.9-12.8-28.2-12.8Z"/>
    <path class="cls-2" d="M336.2,233.7l-83.4-82.3c-18.8-18.6-44.4-29.3-71.6-27.5l-34-33.7c-10.1-10-27.3-2.9-27.3,11.4v51.6l-85.4,85.4,107.1,107.3h46l35.2,35.2c18.6,18.6,40.5,32.7,64.5,41.7.2,21.7,4.6,42.1,11.8,57h56.3c5.9-12.3,10-28.3,11.4-45.4-83.5-34.4-97.8-144.7-30.5-200.6h0Z"/>
    <path class="cls-6" d="M34.5,238.5c-18,18-27,41.3-27,65.1s9,47.1,27,65.1c36,36,94.3,36,130.2,0l22.9-22.9-107.3-107.3c-12.6-12.6-33.1-12.6-45.8,0h0Z"/>
    <ellipse class="cls-4" cx="170" cy="263.3" rx="31.4" ry="25"/>
    <path class="cls-7" d="M115,165.5c0,15.2,12.3,27.5,27.5,27.5v-55c-15.2,0-27.5,12.3-27.5,27.5Z"/>
    <path class="cls-9" d="M225.9,117.2c-11.1-4.4-23.8-1.8-32.3,6.7,0,16.4,13.2,29.6,29.6,29.6s15.9-3.4,21.5-9.3c-.3-12-7.8-22.6-18.9-27h0Z"/>
    <path class="cls-8" d="M217.7,77.1c-2.1-2.9-5.8-4.4-9.3-3.7-16.2,3.5-26.4,19.5-22.9,35.7,1.2,5.6,4,10.7,8.1,14.8,16.4,0,29.6-13.3,29.6-29.6s-1.9-12.2-5.5-17.2h0Z"/>
    <path class="cls-8" d="M298.3,276.3c7.2-7.2,12.5-15.7,12.5-24.4.3-11.9-9.4-23.4-20.7-31.8-11.3,8.4-21.1,19.8-20.7,31.8,0,8.8,5.4,17.3,12.5,24.4s12.1,4.3,16.4,0h0Z"/>
    <path class="cls-9" d="M346.3,211.9c-7.2-7.2-15.7-12.5-24.4-12.5-11.9-.3-23.4,9.4-31.8,20.7,8.4,11.3,19.8,21.1,31.8,20.7,8.8,0,17.3-5.4,24.4-12.5,4.3-4.3,4.3-12.1,0-16.4h0Z"/>
    <path class="cls-4" d="M290.1,220.1c-15.2,0-27.5-12.3-27.5-27.5s12.3-27.5,27.5-27.5,27.5,12.3,27.5,27.5-2.2,12.3-5.9,17c-5,6.4-12.9,10.5-21.6,10.5Z"/>
    <circle class="cls-4" cx="235.1" cy="192.6" r="27.5"/>
    <path class="cls-7" d="M235.1,220.1c0,15.2,12.3,27.5,27.5,27.5v-55c-15.2,0-27.5,12.3-27.5,27.5Z"/>
    <path class="cls-7" d="M262.6,192.6l-9.2,27.5,9.2,27.5c15.2,0,27.5-12.3,27.5-27.5s-12.3-27.5-27.5-27.5Z"/>
    <path class="cls-6" d="M290.1,165.1c0,15.2-12.3,27.5-27.5,27.5s-27.5-12.3-27.5-27.5,3.7-15.9,9.6-20.9c5-4.3,11.3-6.6,17.9-6.6,15.2,0,27.5,12.3,27.5,27.5Z"/>
    <circle class="cls-10" cx="262.6" cy="192.6" r="22.5"/>
    <path class="cls-8" d="M115,110.5c-1-7.4-3.6-14-8.5-18.5-6.5-6.4-16.6-8.7-27.2-8.8-6.3,0-12.1,5.8-12.1,12.1,0,10.5,2.4,20.7,8.8,27.2,3.3,3.5,7.7,5.9,12.7,7.3,7.8,2.2,17,2.1,25.9.8,1-6.7,1.3-13.7.4-20.1Z"/>
    <path class="cls-4" d="M327.2,504.5c11,0,20.9-9.7,28.1-24.8-6.9-7.8-16.9-12.7-28.1-12.7s-21.3,4.9-28.2,12.7c7.2,15.1,17.2,24.8,28.2,24.8Z"/>
    <path class="cls-7" d="M142.5,138l-9.2,27.5,9.2,27.5c15.2,0,27.5-12.3,27.5-27.5s-12.3-27.5-27.5-27.5Z"/>
    <path class="cls-4" d="M115,110.5c-12.3,0-22.7,8.1-26.2,19.2-.8,2.7-1.3,5.5-1.3,8.3,0,15.2,12.3,27.5,27.5,27.5s27.5-12.3,27.5-27.5-12.3-27.5-27.5-27.5Z"/>
    <path class="cls-4" d="M170,165.5c-15.2,0-27.5-12.3-27.5-27.5s12.3-27.5,27.5-27.5,18.8,5.4,23.6,13.4c2.6,4.3,3.9,9.1,3.9,14.1,0,15.2-12.3,27.5-27.5,27.5Z"/>
    <circle class="cls-6" cx="142.5" cy="110.5" r="27.5"/>
    <circle class="cls-10" cx="142.5" cy="138" r="22.5"/>
  </g>

  <g class="outline">
    <path d="M413.7,242.7c-.3-19.1-12.2-36.3-29.7-43.5-2.9-14.5-12.5-26.7-25.8-32.9,2.8-7.2,4.3-15,4.3-22.8s0-1.6,0-2.4c-1.2-33.2-29.3-60.3-62.6-60.3s-9.1.5-13.5,1.5c-4.5-13-12.6-24.5-23.4-33-12.7-10-28.6-15.6-44.7-15.6s-10.7.6-16,1.8c-11.4,2.6-22,7.9-30.9,15.5-8.9-4.5-18.8-6.8-28.9-6.8s-7.4.3-11,.9c-4.1.7-6.8,4.6-6.1,8.6.7,4.1,4.6,6.8,8.6,6.1,2.8-.5,5.6-.7,8.5-.7,9.2,0,18.2,2.6,26,7.4,3,1.8,6.8,1.4,9.2-1.1,7.6-7.6,17.3-12.9,27.8-15.3,4.2-.9,8.4-1.4,12.6-1.4,26.4,0,49.8,18.7,55.7,44.6.5,2.1,1.8,3.9,3.7,4.9,1.9,1,4.1,1.2,6.2.5,5.2-1.9,10.7-2.9,16.1-2.9,25.3,0,46.7,20.6,47.6,45.9v1.8c0,8.2-2.1,16.3-6.2,23.4-1.2,2-1.3,4.5-.4,6.7s2.8,3.8,5.1,4.3c13,3.1,22.5,14.2,23.7,27.5.3,3.1,2.4,5.7,5.4,6.5,13.6,4,23.2,16.5,23.6,30.7h-22.5c-9.3,0-18.4-2.6-26.2-7.5.5-.5,1.1-1,1.6-1.5,7.2-7.2,7.2-19.8,0-27-6.4-6.3-15.6-13.2-26.5-14.5,0-5-1.3-10-3.6-14.8-4.9-10.1-14-17-24.6-19-.5-2.5-1.3-5-2.4-7.5-5.7-12.8-17.9-20.7-31.9-20.7s-8.7.8-12.6,2.3c-3.6-10-11.2-18.1-21.4-22.2-.4-.2-.9-.3-1.3-.5.3-.6.5-1.2.8-1.8,4.7-11.8,3.1-25-4.3-35.3-3.9-5.4-10.5-8-17-6.6-12.2,2.7-22.2,11.2-26.8,22.8-1.9,4.8-2.8,9.9-2.6,14.9-.2,0-.4,0-.6,0-.5-2.5-1.3-5-2.4-7.5-5.7-12.8-17.9-20.7-31.9-20.7s-21.7,5.5-28.1,14.1c-3.5-4.4-7.8-7.4-12.5-9.6,2.5-3.5,5.4-6.6,8.7-9.4,3.2-2.7,3.6-7.4,1-10.6-2.7-3.2-7.4-3.6-10.6-1-5.7,4.7-10.6,10.5-14.4,16.9-2.5-.3-4.9-.4-7.3-.4-10.4,0-19.5,9.2-19.6,19.6,0,2.1,0,4.1.3,6l-9.3-6.3c-10.6-7.2-25.1-4.3-32.3,6.3-5.3,7.9-5.3,18.1,0,26l44.2,65.5c.9,1.4,1.9,2.7,3,3.9l-36.4,36.4h0C10.4,252,0,277,0,303.6s10.4,51.6,29.2,70.4c38.8,38.8,102,38.8,140.8,0l17.6-17.6,29.9,29.9c18.1,18.1,39,32,62.4,41.5.8,20.4,5.1,39.8,12.4,55.1h0c8.9,18.7,21.3,29,34.9,29s25.9-10.3,34.8-29h0c4.3-9,7.7-19.7,9.8-31.2,2.1,11.5,5.4,22.1,9.8,31.3h0c8.9,18.7,21.3,29,34.9,29s26-10.3,34.9-28.9h0c7.4-15.4,11.8-35,12.5-55.7,9.7-5.9,18.3-13.4,25.5-22.3,2.6-3.2,2.1-7.9-1.1-10.6-3.2-2.6-7.9-2.1-10.6,1.1-6.9,8.5-15.3,15.5-24.9,20.8-2.4,1.3-3.9,3.8-3.9,6.5-.1,15.8-2.7,31.4-7.3,44.3-7.4-5-16.1-7.7-25.2-7.7s-17.8,2.8-25.2,7.8c-2.7-7.7-4.7-16.4-5.9-25.5h6.4c4.1,0,7.5-3.4,7.5-7.5s-3.4-7.5-7.5-7.5h-40c-4.1,0-7.5,3.4-7.5,7.5s3.4,7.5,7.5,7.5h6.4c-1.2,9-3.3,17.7-6,25.4-7.4-5-16.1-7.7-25.1-7.7s-17.8,2.8-25.2,7.7c-4.6-13-7.2-28.8-7.3-44.6,0-3.1-2-5.9-4.9-7-23.2-8.7-44-22.2-61.8-40l-35.2-35.2h0l-107.3-107.3c-6.6-6.6-15.1-10.4-23.8-11.4l47-47c.5,1.7,1.1,3.4,1.8,5,5.7,12.8,17.9,20.7,31.9,20.7s31.2-12.1,34.3-28.2c2.5-.5,5-1.3,7.5-2.4,7.6-3.4,13.4-9.1,17-16.1,4.6,3.4,10,5.7,15.7,6.7,1.2.2,2.3.3,3.5.4-12.6,5.8-20.4,17.9-20.4,31.7s12.1,31.1,28.2,34.3c.8,4,2.4,7.9,4.7,11.7,6.5,10.6,17.3,16.5,29.1,16.6,1,8.8,6,17.9,14.5,26.4s8.5,5.4,13.5,5.4,9.9-1.8,13.5-5.4c9.5-9.6,14.6-19.8,14.7-29.6,0-1.3,0-2.6-.2-3.8,1.1.1,2.2.2,3.3.2,5.6,0,10.9-1.5,15.6-3.9,11.2,8.6,24.9,13.2,39.1,13.2h35c47.3,0,85.7,37.6,85.7,83.9s-1.8,20.6-5.4,30.3c-1.5,3.9.5,8.2,4.4,9.7.9.3,1.8.5,2.6.5,3,0,5.9-1.9,7-4.9,4.2-11.3,6.4-23.3,6.4-35.6,0-53.7-43.9-97.6-98.3-98.8h.5ZM416.7,474.5c6.9,0,13.6,2.4,18.9,6.8-5.8,10.1-12.5,15.7-18.9,15.7s-13.2-5.7-18.9-15.7c5.3-4.3,12-6.8,18.9-6.8ZM327.2,474.5c6.9,0,13.6,2.4,18.9,6.7-5.8,10.1-12.5,15.8-18.9,15.8s-13.2-5.7-18.9-15.7c5.3-4.3,12-6.8,18.9-6.8ZM74.9,243.8l102,102-17.6,17.6c-16,16-37.2,24.8-59.8,24.8s-43.8-8.8-59.8-24.8-24.8-37.2-24.8-59.8,8.8-43.8,24.8-59.8h0c1.8-1.8,3.8-3.3,6-4.4,9.4-4.9,21.3-3.4,29.1,4.4h.1ZM79.3,90.7c3.4,0,6.4.2,9.1.7.5.2,1,.3,1.5.3,8,1.7,13.1,5.8,15.8,12.5h0c-8.3,2.3-15.3,7.5-19.9,14.4l-6.7-4.5c-2.8-4.5-4.3-11-4.3-18.8s2.4-4.6,4.5-4.6ZM76.3,186.1c-.4-.5-.8-1.1-1.2-1.6L30.8,118.9c-1.9-2.8-1.9-6.4,0-9.2,2.5-3.8,7.7-4.8,11.5-2.2l27.1,18.3h0l10.9,7.3c-1.3,9,.9,18.1,6.5,25.6,2.4,3.3,5.3,6.1,8.6,8.3l-19.1,19.1h0ZM112.5,138c0,2.7.4,5.3,1,7.9-2.3,3.4-4,7.2-5,11.1-3.8-1.3-7.2-3.7-9.7-7.1-3.8-5.2-4.9-11.7-3-17.8,2-6.5,7.2-11.4,13.8-13.3,1.7-.5,3.4-.7,5.2-.7h.2c1.6,0,3.1.2,4.6.5-4.6,5.3-7.2,12.2-7.2,19.5h0ZM142.5,185.5c-8.1,0-14.9-4.4-18.2-11.8-1.6-3.5-2.4-8.2-1.3-12.9,5.3,4.5,12.2,7.2,19.5,7.2s5.3-.3,7.8-1c3.4,2.3,7.2,4,11.1,5-2.7,7.9-10.1,13.5-18.9,13.5h0ZM127.5,138c0-5.9,3.5-11.3,8.9-13.7,1.9-.9,4-1.3,6.1-1.3,5.9,0,11.3,3.5,13.7,8.9.9,1.9,1.3,4,1.3,6.1,0,5.9-3.5,11.3-8.9,13.7-1.9.9-4,1.3-6.1,1.3-5.9,0-11.3-3.5-13.7-8.9-.9-1.9-1.3-4-1.3-6.1ZM162,115.2c-5.3-4.5-12.2-7.2-19.5-7.2s-5.3.4-7.9,1c-3.4-2.3-7.2-4-11.1-5,2.7-7.9,10.1-13.6,18.9-13.6s14.9,4.4,18.2,11.8c1.6,3.5,2.4,8.2,1.3,12.9h0ZM178.2,156.2c-3.5,1.6-8.2,2.4-12.9,1.3,4.5-5.3,7.2-12.2,7.2-19.5s-.4-5.3-1-7.9c2.3-3.4,4-7.2,5-11.1,7.9,2.7,13.5,10.1,13.5,18.9s-4.4,14.9-11.8,18.2h0ZM197.2,116.1c-.6-.7-1.2-1.5-1.9-2.2-3.4-5.9-3.9-13.1-1.4-19.5,2.8-7,8.8-12.1,16.1-13.7h.3c.5,0,1,.3,1.3.7,4.4,6.1,5.3,14,2.6,21-1.1,2.8-2.7,5.3-4.9,7.4-3.3,3.3-7.5,5.5-12,6.2h-.1ZM219.5,145.7c-6-1-11.2-4.4-14.6-9.3-.1-2.2-.4-4.4-.9-6.5,4.8-1.4,9.4-3.8,13.3-7.1,2,.2,3.9.7,5.8,1.4,7.3,2.9,12.5,9.4,13.8,17-4.9,3.9-11.2,5.5-17.4,4.5h0ZM233.6,200.4c-2.4,3.4-4.1,7.2-5.1,11.1-7.8-2.7-13.5-10.1-13.5-18.9s4.4-14.9,11.8-18.2c3.5-1.6,8.2-2.4,12.9-1.3-6.3,7.4-8.8,17.6-6.1,27.3h0ZM262.6,145.1c8.1,0,14.9,4.4,18.2,11.8,1.6,3.5,2.4,8.2,1.3,12.9-7.4-6.3-17.6-8.8-27.3-6.1-3.4-2.3-7.2-4-11.1-5,2.7-7.9,10.1-13.5,18.9-13.5h0ZM268.7,206.3c-7.5,3.4-16.4,0-19.8-7.6-3.4-7.5,0-16.4,7.6-19.8,2-.9,4.1-1.3,6.1-1.3,5.7,0,11.2,3.3,13.7,8.9,3.4,7.5,0,16.4-7.6,19.8h0ZM267.9,239.4c-10.5,2.9-18.3-2.6-22.1-8.7-2.4-3.9-4-9.6-2.6-15.3,5.4,4.6,12.4,7.2,19.5,7.2s5.2-.3,7.8-1c3.4,2.3,7.1,4,11.1,5-2.1,6.2-7.1,11.1-13.7,12.9h0ZM303.3,251.8c0,7.3-5.7,14.5-10.3,19.2-1.4,1.4-4.5,1.4-5.8,0-4.6-4.7-10.2-11.7-10.3-19,7.5-3.3,13.5-9.2,17-16.4,1.9,1.8,3.9,3.4,5.8,4.9,2.5,3.9,3.7,7.6,3.6,11.1v.2h0ZM291.9,212.5c-2.2.2-4.4,0-6.4-.5,6.3-7.4,8.8-17.6,6.1-27.3,2.4-3.4,4-7.2,5-11.1,5,1.7,9,5.2,11.5,10.2,2.1,4.3,2.6,9,1.6,13.3-.2.4-.3.9-.4,1.3-.7,2.3-1.8,4.4-3.4,6.4-3.5,4.4-8.4,7.1-14,7.6h0ZM341,223c-2.3,2.3-4.5,4.2-6.6,5.7-.5.3-.9.6-1.4.9-8.1,5.2-15.5,4.9-23.5-.5-1.8-1.2-3.6-2.7-5.4-4.4,5.2-2.3,9.9-5.8,13.5-10.5,1.8-2.3,3.3-4.8,4.4-7.3,5.9.2,12.3,3.7,18.9,10.3s1.4,4.5,0,5.8h.1ZM35.6,273.8c-.7,4.1,2,8,6.1,8.7.4,0,.9.1,1.3.1,3.6,0,6.7-2.6,7.4-6.2.5-2.8,3.2-4.7,6.1-4.2l8.1,1.5c4.1.7,8-2,8.7-6.1s-2-8-6.1-8.7l-8.1-1.5c-11-2-21.5,5.4-23.5,16.4h0Z"/>
  </g>
</svg>