<svg xmlns="http://www.w3.org/2000/svg" viewBox="0 0 512 512" id="uni6">
  <defs>
    <style>
      .cls-1 { fill: #fce3a0; }
      .cls-2 { fill: #d4d4ff; }
      .cls-3 { fill: #fff1d4; }
      .cls-4 { fill: #efedff; }
      .cls-5 { fill: #f8f8f8; }
      .cls-6 { fill: #ffb357; }
      .cls-7 { fill: #ffce71; }
    </style>
  </defs>

  <g class="fill">
    <path class="cls-3" d="M394.8,181.8c-11.8-8.8-28.5-7.8-39,3-4.6,4.7-6.8,10.8-6.7,16.9l-16.1,35.9c18.4,17.8,47.7,17.4,65.5-.9,15.8-16.3,13.3-42.6-3.7-54.8Z"/>
    <path class="cls-1" d="M321.3,161.7c29.3,11.7,37.2,49.7,14.8,72.1h-50.3v-72.1h35.5Z"/>
    <path class="cls-7" d="M228.5,74.4c-25.9,0-50.2,10.1-68.5,28.4v135.3h96c38.5,0,65.3-38.2,65.3-76.3s-44.4-87.4-92.9-87.4h0Z"/>
    <path class="cls-1" d="M151.2,58.2l-39.8,11.7v83.2h78.3l3-7.9c13.6-36-6.2-75.6-41.5-87h0Z"/>
    <path class="cls-7" d="M151.2,58.2c-28.1-9-57.7,6.7-66.7,33.3-12.8-14-34-4.6-34,12.5v49.1h99.4l-30-51.6c0-20.2,13.1-37.3,31.3-43.3h0Z"/>
    <path class="cls-4" d="M112,145.5l-28.5-19.3h-10.7l-22.3-22.3-4-2.7c-6.3-4.2-14.6-3.4-20,1.9-5.3,5.3-6.1,13.7-1.9,20l25.9,38.4h12.5l20.5,38.8c11.9,4.6,26.3,1.6,35.3-9.4.4-.5.8-1,1.1-1.5v-36.4c-2.2-3-4.8-5.5-7.9-7.6Z"/>
    <path class="cls-2" d="M50.5,104v57.6l18.3,27.2c3.8,5.6,9,9.5,14.7,11.7v-74.2s-33-22.3-33-22.3Z"/>
    <path class="cls-7" d="M411.3,250.2h-35.1c-15,0-29.4-5.9-40.1-16.4h-42.6v200.6h83.7c1.4,17.3,5.4,33.2,11.3,45.5h56.4c7.1-14.9,11.6-35.2,11.8-56.8,28.7-15.8,47.8-46.4,47.8-81.5,0-51.3-42.6-91.4-93.2-91.4h0Z"/>
    <path class="cls-6" d="M336.2,233.8l-83.4-82.3c-18.8-18.6-44.4-29.3-71.6-27.5l-34-33.7c-10.1-10-27.3-2.9-27.3,11.4v51.6l-85.4,85.4,107.1,107.3h46l35.2,35.2c18.6,18.6,40.5,32.7,64.5,41.7.2,21.7,4.6,42.1,11.8,57h56.3c5.9-12.3,10-28.3,11.4-45.4-83.5-34.4-97.8-144.7-30.5-200.6h0Z"/>
    <path class="cls-1" d="M327.2,504.6c11,0,20.9-9.7,28.1-24.8-6.9-7.8-16.9-12.7-28.1-12.7s-21.3,4.9-28.2,12.7c7.2,15.1,17.2,24.8,28.2,24.8ZM34.5,238.6c-18,18-27,41.3-27,65.1s9,47.1,27,65.1c36,36,94.3,36,130.2,0l22.9-22.9-107.3-107.3c-12.6-12.6-33.1-12.6-45.8,0Z"/>
    <path class="cls-1" d="M375.6,243.6c0,.1,0-.1,0,0ZM275.7,123.9c-26.1-26.1-68.4-26.1-94.5,0,15.2,12.7,24,31.5,24,51.4,0,8.8,3.3,17.5,10,24.2,15.4,15.4,39.6,16.5,56.3,3.6,1.5-1.1,2.8-2.3,4.1-3.6,20.9-20.9,20.9-54.7,0-75.6h0Z"/>
    <path class="cls-1" d="M416.7,467.1c-11.2,0-21.3,4.9-28.2,12.8,7.2,15.1,17.2,24.7,28.2,24.7s21-9.6,28.2-24.7c-6.9-7.8-16.9-12.8-28.2-12.8Z"/>
    <ellipse class="cls-5" cx="170" cy="263.3" rx="31.4" ry="25"/>
  </g>

  <g class="outline">
    <path d="M411.3,242.7h-8.3c.3-.3.6-.6.8-.8,9.1-9.4,13.7-22.2,12.5-35.3-1.1-12.5-7.3-23.8-17.1-30.8-11.4-8.5-26.4-9.8-39.2-3.3-3.5,1.8-6.6,4-9.1,6.6-4.8-9.4-12.5-17.2-22.1-22.2-1.3-24.2-12-46.6-30.6-63.4-18.7-16.9-44.1-26.6-69.7-26.6s-27.7,2.7-40.4,8.1c-8.9-11.2-20.9-19.5-34.5-23.9-28.2-9.1-58.6,3.7-72.1,28.8-6.6-3.2-14.1-3.6-21.3-.8-6.6,2.6-11.6,7.4-14.5,13.4-8.3-3-17.9-1.1-24.3,5.4-7.9,7.9-9.1,20.3-2.8,29.5l44.2,65.5c.9,1.4,1.9,2.7,3,3.9l-36.4,36.4s0,0,0,0,0,0,0,0C10.4,252.1,0,277.1,0,303.7s10.4,51.6,29.2,70.4,43.8,29.2,70.4,29.2,18.4-1.3,27.2-3.8c0,0,0,0,0,0,16.2-4.6,31.2-13.4,43.2-25.4l17.6-17.6,29.9,29.9c18.1,18.1,39,32,62.4,41.5.8,20.4,5.1,39.8,12.4,55.1,0,0,0,0,0,.1,9,18.7,21.4,29,34.9,29s25.9-10.3,34.8-29c0,0,0,0,0,0,4.3-9,7.7-19.7,9.8-31.2,2.1,11.5,5.4,22.1,9.8,31.2,0,0,0,.1,0,.2,8.9,18.6,21.3,28.9,34.9,28.9s26-10.3,34.9-28.9c0,0,0,0,0,0,0,0,0,0,0,0,7.4-15.4,11.8-35,12.5-55.7,9.7-5.9,18.3-13.4,25.5-22.3,2.6-3.2,2.1-7.9-1.1-10.5-3.2-2.6-7.9-2.1-10.5,1.1-6.9,8.5-15.3,15.5-24.9,20.8-2.4,1.3-3.9,3.8-3.9,6.5-.1,15.8-2.7,31.4-7.3,44.3-7.4-5-16.1-7.7-25.2-7.7s-17.8,2.8-25.2,7.8c-2.7-7.7-4.7-16.4-5.9-25.5h6.4c4.1,0,7.5-3.4,7.5-7.5s-3.4-7.5-7.5-7.5h-40c-4.1,0-7.5,3.4-7.5,7.5s3.4,7.5,7.5,7.5h6.4c-1.2,9.1-3.3,17.7-6,25.4-7.4-5-16.1-7.7-25.1-7.7s-17.8,2.7-25.2,7.7c-4.6-13-7.2-28.7-7.3-44.6,0-3.1-2-5.9-4.9-7-23.2-8.7-44-22.2-61.8-40l-35.2-35.2-107.3-107.3c-6.6-6.6-15.1-10.4-23.8-11.4l63.4-63.4s0,0,.1-.1c0-.1.2-.2.3-.3,0,0,.1-.2.2-.2,0-.1.2-.2.3-.3,0,0,.1-.2.2-.3,0-.1.1-.2.2-.4,0,0,.1-.2.2-.3,0-.1.1-.2.2-.4,0-.1,0-.2.1-.3,0-.1,0-.2.1-.3,0-.1,0-.2.1-.4,0-.1,0-.2,0-.3,0-.1,0-.3,0-.4,0-.1,0-.2,0-.3,0-.1,0-.3,0-.4,0-.1,0-.2,0-.3,0,0,0-.2,0-.2v-51.6c0-5.3,4.4-8.5,8.6-8.5s3.8.4,5.9,2.5l34,33.7c.2.1.3.3.5.4,13.5,11.3,21.3,27.9,21.3,45.6,0,0,0,0,0,0,0,0,0,0,0,0,0,12.5,5.4,23.9,15,32.2,8.8,7.5,20.8,11.9,32.9,11.9,17.1,0,32.3-8.3,42.3-22.8l43,42.5c10.9,10.8,25.7,17.4,41,18.4.1,0,.2,0,.3,0,1.3,0,2.6.1,4,.1h35.1c47.3,0,85.7,37.6,85.7,83.9,0,10.5-1.8,20.6-5.4,30.3-1.5,3.9.5,8.2,4.4,9.7,3.9,1.5,8.2-.5,9.7-4.4,4.2-11.3,6.4-23.3,6.4-35.6,0-54.5-45.2-98.9-100.7-98.9ZM416.7,474.6c6.9,0,13.6,2.4,18.9,6.8-5.8,10.1-12.5,15.7-18.9,15.7s-13.2-5.7-18.9-15.7c5.3-4.3,12-6.8,18.9-6.8ZM327.2,474.6c6.9,0,13.5,2.4,18.9,6.7-5.8,10.1-12.5,15.8-18.9,15.8s-13.2-5.7-18.9-15.8c5.3-4.3,12-6.7,18.9-6.7ZM74.9,243.9l102,102-17.6,17.6c-10.2,10.2-22.9,17.6-36.6,21.6,0,0,0,0,0,0-7.5,2.1-15.3,3.2-23.1,3.2-22.6,0-43.8-8.8-59.8-24.8-16-16-24.8-37.2-24.8-59.8s8.8-43.8,24.8-59.8h0c9.7-9.7,25.5-9.7,35.1,0ZM76.3,186.2c-.4-.5-.8-1.1-1.2-1.6L30.8,119c-2.2-3.3-1.8-7.7,1-10.5,2.8-2.8,7.2-3.2,10.5-1l4,2.7s0,0,0,0l61.5,41.5c.6.4,1.1.8,1.6,1.2l-33.2,33.2ZM393.1,231.5c-5.6,5.7-12.9,9.7-20.8,11.1-11.5-.9-22.6-6-30.9-14.1l-46.3-45.7c7.3-19.4,4.5-39.8-8-56.8-15.3-20.9-42.3-32-68.8-28.3-4.1.6-7,4.3-6.4,8.4.6,4.1,4.3,7,8.4,6.4,21.1-2.9,42.5,5.9,54.6,22.4,10.2,13.9,11.8,30.9,4.5,46.5,0,0,0,0,0,0-6.9,14.7-19.3,23.1-33.8,23.1s-32.9-14.8-32.9-29.1,0,0,0,0c0-7.1,2.8-13.8,7.8-18.8,7.7-7.7,20.3-7.7,28.1,0,5.6,5.6,5.6,14.7,0,20.4-2.9,2.9-2.9,7.7,0,10.6,1.5,1.5,3.4,2.2,5.3,2.2s3.8-.7,5.3-2.2c11.5-11.5,11.5-30.1,0-41.6-13.6-13.6-35.7-13.6-49.3,0-.8.8-1.5,1.6-2.3,2.5-4.5-11.5-11.7-21.8-21.4-29.9l-33.8-33.5c-4.5-4.4-10.3-6.8-16.4-6.8-13,0-23.6,10.6-23.6,23.5v35.2l-53.9-36.3c1.2-3.8,4.2-6.2,7-7.3,2.3-.9,8.1-2.3,13.4,3.5,1.8,2,4.5,2.8,7.1,2.3,2.6-.5,4.7-2.4,5.6-4.9,7.9-23.3,33.6-36.1,57.3-28.5,13.9,4.5,25.5,14,32.9,27,2,3.6,6.6,4.9,10.2,2.8,2.6-1.5,4-4.4,3.8-7.2,10.4-4.1,21.3-6.2,32.7-6.2,47.1,0,85.4,35.8,85.4,79.9,0,4.3-.4,8.7-1.1,12.9-.7,4.1,2,8,6.1,8.7.4,0,.9.1,1.3.1,3.6,0,6.7-2.6,7.4-6.2.2-1,.3-2,.5-3,8.2,6.7,13.3,16.7,13.6,27.7,0,.4,0,.8,0,1.2,0,0,0,.2,0,.3,0,.4,0,.8.1,1.2,0,.1,0,.2,0,.3,0,.4.1.8.2,1.2,0,.1,0,.2,0,.4,0,.4.1.7.2,1,0,.2,0,.3,0,.5,0,.3.2.7.2,1,0,.2,0,.3.1.5,0,.3.2.6.3,1,0,.2,0,.3.1.5,0,.3.2.6.3.9,0,.2.1.4.2.5.1.3.2.6.3.9,0,.2.1.4.2.6.1.3.2.5.4.8,0,.2.2.4.3.6.1.3.3.5.4.8,0,.2.2.4.3.5.2.3.3.6.5.9,0,.2.2.3.3.5.2.4.5.8.7,1.1,0,0,0,.1.1.2,1.2,1.7,2.5,3.3,4,4.7,1.5,1.4,3.3,2.1,5.2,2.1s3.9-.8,5.4-2.3c1.4-1.5,2.1-3.4,2.1-5.3,0,0,0-.2,0-.3,0-.1,0-.3,0-.4-.2-1.7-.9-3.3-2.2-4.6-.8-.7-1.4-1.6-2-2.4,0-.1-.1-.2-.2-.4-.2-.3-.4-.6-.6-1-.1-.2-.2-.4-.3-.6-.1-.3-.3-.5-.4-.8,0-.2-.1-.4-.2-.6-.1-.3-.2-.6-.3-.9,0-.2,0-.4-.1-.5,0-.3-.2-.7-.3-1,0-.2,0-.3,0-.5,0-.4-.1-.7-.2-1.1,0-.2,0-.3,0-.5,0-.4,0-.7,0-1.1,0,0,0,0,0,0,0-6.6,3.7-12.5,10.2-15.8,6-3.1,15.4-4.2,23.5,2,0,0,0,0,.1,0,6.2,4.5,10.2,11.8,11,20,.8,8.7-2.3,17.3-8.3,23.5ZM35.6,273.8c-.7,4.1,2,8,6.1,8.7.4,0,.9.1,1.3.1,3.6,0,6.7-2.6,7.4-6.2.5-2.8,3.2-4.7,6.1-4.2l8.1,1.5c4.1.7,8-2,8.7-6.1.7-4.1-2-8-6.1-8.7l-8.1-1.5c-11-2-21.5,5.4-23.5,16.4Z"/>
  </g>
</svg>